<svg id="svg" version="1.1" xmlns="http://www.w3.org/2000/svg" xmlns:xlink="http://www.w3.org/1999/xlink" width="400" height="400" viewBox="0, 0, 400,400"><g id="svgg"><path id="path0" d="M13.180 177.578 C 11.632 178.480,13.605 185.811,16.578 190.200 C 18.212 192.613,18.227 192.673,17.022 191.971 C 15.267 190.948,12.392 187.624,11.404 185.475 C 9.796 181.976,9.683 181.804,8.898 181.692 C 5.943 181.266,7.119 186.466,11.072 191.301 L 12.719 193.316 11.259 192.496 C 10.457 192.045,8.884 190.937,7.765 190.036 C 5.165 187.941,3.634 187.855,3.472 189.796 C 3.198 193.092,12.479 197.623,19.497 197.618 C 20.279 197.618,21.990 197.859,23.299 198.154 C 24.609 198.449,26.005 198.754,26.402 198.831 C 26.891 198.926,27.370 199.546,27.891 200.761 C 29.086 203.547,34.861 214.337,37.677 219.048 C 45.264 231.736,50.173 236.362,54.989 235.362 C 57.060 234.932,62.243 232.902,63.557 232.007 C 64.051 231.670,65.757 230.663,67.347 229.770 C 76.053 224.882,106.268 203.584,106.925 201.873 C 107.235 201.064,106.557 200.000,105.730 200.000 C 105.341 200.000,101.558 202.577,97.324 205.727 C 73.390 223.531,56.843 233.505,52.887 232.512 C 49.480 231.657,42.093 220.931,33.600 204.507 L 30.214 197.959 31.348 197.952 C 36.305 197.919,39.779 191.708,37.423 187.090 C 36.210 184.712,33.103 183.272,31.862 184.513 C 30.818 185.557,31.331 187.415,32.662 187.415 C 35.452 187.415,35.404 192.625,32.601 194.074 C 28.220 196.340,22.109 192.413,22.109 187.331 C 22.109 184.138,24.976 181.916,27.061 183.493 C 29.385 185.250,31.470 182.701,29.242 180.826 C 25.728 177.870,20.195 180.235,18.918 185.238 L 18.509 186.843 17.571 184.753 C 17.055 183.604,16.423 181.658,16.166 180.429 C 15.519 177.336,14.791 176.640,13.180 177.578 M387.298 177.833 C 386.988 178.175,386.735 178.779,386.735 179.176 C 386.735 180.050,385.201 184.884,384.564 186.020 C 384.118 186.813,384.094 186.787,383.677 185.048 C 382.506 180.168,376.570 177.891,373.214 181.034 C 371.279 182.847,373.527 185.106,375.660 183.493 C 377.713 181.940,380.612 184.134,380.612 187.239 C 380.612 192.755,373.312 196.958,369.420 193.683 C 367.165 191.785,367.408 188.237,369.849 187.431 C 371.725 186.812,371.963 184.586,370.201 184.144 C 366.635 183.249,363.635 188.304,364.927 193.033 C 365.589 195.456,368.733 197.932,371.173 197.952 C 372.517 197.962,372.478 198.073,368.427 205.765 C 366.402 209.609,364.637 213.048,364.505 213.406 C 362.849 217.888,353.288 230.794,350.590 232.190 C 346.808 234.146,330.749 224.693,304.149 204.854 C 297.470 199.873,296.609 199.451,295.785 200.765 C 295.195 201.707,295.706 202.219,301.900 206.892 C 323.603 223.266,340.874 233.993,347.789 235.394 C 353.616 236.574,361.014 227.646,372.045 206.122 C 374.011 202.287,375.662 199.094,375.716 199.027 C 375.961 198.716,380.801 197.903,384.184 197.604 C 390.309 197.064,395.116 195.023,398.411 191.564 C 400.951 188.897,398.243 187.289,395.312 189.724 C 391.820 192.626,388.986 193.941,391.293 191.589 C 393.106 189.741,395.198 185.816,395.476 183.740 C 395.763 181.601,393.462 180.784,392.479 182.676 C 392.340 182.944,391.780 184.158,391.235 185.374 C 390.087 187.938,388.956 189.369,386.619 191.216 C 384.441 192.938,384.378 192.759,386.190 189.999 C 388.985 185.744,390.968 178.660,389.636 177.686 C 388.752 177.040,387.971 177.089,387.298 177.833 M155.999 179.059 C 152.145 180.465,150.154 185.223,149.767 193.952 C 149.543 199.001,149.711 199.660,151.220 199.660 C 152.415 199.660,152.617 198.910,152.827 193.707 C 153.510 176.730,162.384 177.863,163.482 195.068 C 163.728 198.938,163.984 199.660,165.106 199.660 C 166.535 199.660,166.781 198.931,166.526 195.448 C 165.640 183.386,161.558 177.030,155.999 179.059 M238.652 179.070 C 234.895 180.409,232.907 185.275,232.436 194.291 C 232.192 198.945,232.376 199.660,233.817 199.660 C 235.117 199.660,235.374 199.019,235.381 195.765 C 235.421 177.215,244.747 176.798,246.233 195.281 C 246.564 199.406,246.726 199.767,248.173 199.601 C 249.430 199.458,249.628 196.976,248.820 191.469 C 247.406 181.827,243.677 177.279,238.652 179.070 M223.810 208.205 C 210.439 212.878,194.249 213.172,180.396 208.992 C 174.854 207.320,174.300 207.247,173.828 208.130 C 172.116 211.327,189.880 215.349,203.571 214.864 C 214.220 214.487,228.571 210.983,228.571 208.761 C 228.571 206.906,227.787 206.814,223.810 208.205 M155.612 288.296 C 141.296 294.676,130.516 300.389,128.536 302.643 C 124.807 306.891,128.975 308.182,170.003 315.489 C 187.138 318.540,197.899 320.613,199.223 321.116 L 200.021 321.420 199.986 328.560 C 199.949 336.225,199.975 336.395,201.169 336.395 C 202.778 336.395,202.891 335.822,202.891 327.707 C 202.891 320.865,202.832 320.078,202.271 319.456 C 201.142 318.206,196.918 317.288,171.407 312.754 C 146.198 308.274,132.492 305.417,131.513 304.438 C 130.741 303.666,145.449 295.956,159.014 290.021 C 162.194 288.630,164.839 287.278,164.892 287.016 C 164.973 286.614,162.703 285.706,161.645 285.717 C 161.507 285.718,158.793 286.879,155.612 288.296 M251.279 288.761 C 250.392 289.077,249.593 289.410,249.502 289.500 C 249.411 289.591,251.821 290.790,254.856 292.164 C 266.881 297.611,278.349 303.768,277.683 304.419 C 276.721 305.360,263.821 308.092,242.347 311.903 C 209.977 317.648,207.070 318.301,206.434 319.973 C 206.017 321.071,206.034 334.417,206.454 335.522 C 206.683 336.124,207.039 336.395,207.603 336.395 C 209.163 336.395,209.255 335.900,209.008 328.844 C 208.823 323.586,208.869 322.161,209.236 321.688 C 209.809 320.950,214.084 319.980,226.871 317.688 C 278.437 308.445,282.215 307.508,281.478 304.152 C 281.194 302.860,280.441 302.179,276.701 299.834 C 272.930 297.469,253.329 287.821,252.946 288.141 C 252.916 288.166,252.166 288.445,251.279 288.761 " stroke="none" fill="#26264d" fill-rule="evenodd"></path><path id="path1" d="M187.777 26.185 C 179.815 27.419,175.204 28.404,175.074 28.901 C 174.985 29.244,174.203 29.585,172.882 29.858 C 168.683 30.725,163.199 32.664,163.021 33.344 C 162.826 34.089,162.364 34.237,151.992 36.864 C 144.064 38.873,142.947 39.333,136.183 43.385 C 133.894 44.757,131.207 46.221,130.212 46.639 C 129.216 47.057,127.988 47.684,127.482 48.031 C 126.157 48.941,123.224 50.191,119.989 51.224 C 116.846 52.227,116.249 52.593,117.000 53.057 C 117.424 53.319,117.411 53.398,116.912 53.590 C 116.280 53.832,116.098 54.762,116.683 54.762 C 117.279 54.762,115.857 56.440,115.252 56.452 C 114.941 56.458,113.935 57.057,113.017 57.783 C 112.098 58.509,110.821 59.367,110.180 59.689 C 109.538 60.011,107.866 61.382,106.463 62.736 C 105.060 64.089,102.457 66.321,100.680 67.695 C 92.931 73.685,84.591 81.435,79.045 87.799 C 75.894 91.415,75.784 91.611,77.101 91.281 C 77.981 91.060,77.961 91.119,76.511 92.975 C 75.685 94.033,74.887 94.898,74.737 94.898 C 74.410 94.898,75.035 93.661,75.512 93.366 C 75.950 93.096,75.950 92.517,75.512 92.517 C 74.931 92.517,73.160 95.254,72.409 97.314 C 72.014 98.398,71.384 99.561,71.011 99.898 C 70.334 100.508,70.333 100.505,70.917 99.150 C 71.673 97.394,71.899 96.599,71.643 96.599 C 71.285 96.599,69.675 99.365,69.513 100.258 C 69.101 102.529,66.521 106.832,65.148 107.538 C 64.347 107.950,59.744 115.255,60.064 115.607 C 60.129 115.679,60.570 115.485,61.043 115.175 L 61.903 114.611 61.188 116.234 C 60.267 118.321,59.742 119.331,57.955 122.449 C 55.006 127.595,50.024 140.498,49.116 145.342 C 48.829 146.875,48.145 149.919,47.596 152.106 C 46.437 156.729,46.443 156.675,47.109 156.122 C 47.548 155.758,47.619 155.893,47.619 157.101 C 47.619 158.288,47.512 158.503,46.921 158.503 C 46.053 158.503,45.579 159.584,44.388 164.285 C 43.896 166.226,43.349 168.083,43.173 168.412 C 42.742 169.218,42.498 177.798,42.878 178.797 C 43.109 179.404,43.064 179.592,42.685 179.592 C 41.950 179.592,41.892 180.259,41.715 190.821 C 41.494 204.065,42.037 212.727,43.036 211.897 C 43.798 211.265,43.897 212.052,43.498 215.561 C 43.116 218.914,43.120 218.945,43.991 220.267 C 44.473 221.000,44.934 222.211,45.016 222.959 C 45.098 223.707,45.317 224.287,45.502 224.248 C 45.687 224.209,45.924 224.591,46.029 225.098 C 46.605 227.882,51.875 232.497,54.181 232.237 C 56.191 232.010,61.085 229.851,60.948 229.251 C 60.470 227.152,60.475 226.871,60.985 226.871 C 61.292 226.871,61.604 227.294,61.735 227.891 C 62.056 229.352,62.888 228.978,71.732 223.407 L 75.267 221.180 75.351 217.308 C 75.552 208.186,79.671 199.249,86.601 192.899 L 88.831 190.855 88.416 188.280 C 85.221 168.473,97.805 152.247,116.384 152.220 L 122.393 152.211 123.102 150.502 C 128.484 137.524,139.975 131.637,153.284 135.038 L 156.059 135.747 157.876 134.591 C 164.077 130.647,173.016 130.694,180.170 134.708 L 181.938 135.701 183.208 134.151 C 190.018 125.840,203.728 120.653,212.769 122.968 C 218.721 124.492,226.760 130.379,229.256 135.042 C 229.602 135.689,229.694 135.671,232.023 134.499 C 249.657 125.618,273.116 139.014,278.782 161.201 C 279.755 165.012,279.484 164.657,281.132 164.275 C 295.148 161.026,309.249 172.887,311.577 189.883 L 311.950 192.613 314.654 195.156 C 320.421 200.582,325.021 209.886,325.714 217.524 L 325.948 220.113 328.365 221.741 C 337.447 227.857,346.214 232.313,349.163 232.313 C 351.310 232.313,354.678 228.776,359.363 221.599 C 361.955 217.629,364.780 212.790,364.351 213.055 C 363.870 213.352,364.190 206.660,364.746 204.805 C 365.048 203.800,365.208 202.838,365.102 202.667 C 364.997 202.496,364.914 200.257,364.918 197.692 C 364.922 195.126,364.792 192.721,364.629 192.347 C 364.380 191.775,364.330 191.842,364.310 192.772 C 364.292 193.599,364.132 193.878,363.676 193.878 C 363.283 193.878,362.588 194.694,361.720 196.173 L 360.374 198.469 360.267 196.780 C 360.190 195.548,360.305 194.985,360.693 194.702 C 361.385 194.195,361.364 193.709,360.544 191.327 C 359.761 189.051,359.721 188.502,360.241 187.182 C 360.618 186.225,360.618 186.225,360.973 186.990 C 361.965 189.127,361.565 185.699,360.031 178.912 C 359.756 177.696,359.621 176.369,359.730 175.964 C 359.839 175.558,359.672 174.343,359.358 173.264 C 359.022 172.106,358.738 169.687,358.667 167.368 C 358.513 162.312,357.068 154.920,354.384 145.458 C 351.298 134.581,350.676 132.658,350.272 132.744 C 350.069 132.788,349.634 131.788,349.307 130.523 C 348.980 129.258,348.466 127.848,348.166 127.389 C 347.483 126.346,347.465 125.813,348.123 126.065 C 348.712 126.291,344.253 116.722,343.003 115.078 C 342.435 114.330,342.313 113.955,342.605 113.852 C 342.905 113.748,342.829 113.470,342.347 112.896 C 341.838 112.290,341.816 112.202,342.262 112.548 C 343.182 113.260,342.971 112.575,341.679 110.657 C 340.205 108.468,338.848 107.483,337.306 107.483 C 336.202 107.483,336.066 107.366,335.522 105.942 C 334.972 104.501,332.602 101.701,331.933 101.701 C 331.768 101.701,331.633 101.444,331.633 101.131 C 331.633 100.660,331.779 100.699,332.483 101.361 C 333.769 102.569,333.519 101.918,331.521 98.862 C 329.211 95.328,325.659 90.917,324.903 90.643 C 324.582 90.527,323.248 89.182,321.939 87.654 C 318.685 83.858,314.164 79.283,314.418 80.046 C 314.786 81.146,313.263 79.763,309.562 75.634 C 307.694 73.551,305.659 71.500,305.039 71.076 C 304.419 70.652,302.900 69.321,301.663 68.117 C 299.623 66.131,299.396 65.997,299.222 66.663 C 298.956 67.681,298.408 67.328,294.874 63.861 C 291.773 60.819,288.966 58.686,288.467 58.994 C 288.300 59.097,286.987 57.706,285.549 55.903 C 284.110 54.100,283.176 52.719,283.473 52.833 C 284.538 53.241,283.983 52.531,282.390 51.446 C 280.546 50.188,280.324 50.139,279.796 50.861 C 279.202 51.674,277.106 50.867,277.400 49.938 C 277.531 49.527,277.372 48.992,276.986 48.543 C 276.361 47.816,276.361 47.816,277.211 48.346 C 279.274 49.632,282.920 51.207,283.196 50.931 C 283.308 50.819,282.658 50.341,281.751 49.869 C 280.609 49.275,280.322 49.006,280.817 48.995 C 281.210 48.987,282.052 49.353,282.688 49.810 C 286.646 52.656,288.915 54.082,289.484 54.082 C 290.327 54.082,290.307 53.797,289.396 52.828 L 288.656 52.040 290.842 52.928 C 293.896 54.168,295.493 55.002,297.364 56.333 C 298.294 56.994,298.980 57.298,298.980 57.050 C 298.980 56.437,296.015 53.282,295.864 53.734 C 295.770 54.015,291.879 51.870,290.486 50.770 C 290.398 50.700,290.520 50.523,290.757 50.377 C 291.439 49.955,288.525 48.097,287.647 48.394 C 287.426 48.469,287.733 48.783,288.329 49.092 C 289.537 49.720,290.201 50.472,289.218 50.101 C 288.524 49.838,284.079 46.636,282.378 45.172 C 281.758 44.639,281.110 44.290,280.937 44.397 C 280.764 44.504,279.931 44.187,279.086 43.692 C 278.242 43.197,277.551 42.907,277.551 43.048 C 277.551 43.188,277.278 43.055,276.943 42.753 C 276.244 42.120,273.810 41.043,273.585 41.267 C 273.502 41.350,274.414 41.966,275.611 42.636 C 277.448 43.663,279.030 44.898,278.508 44.898 C 277.673 44.898,270.214 41.779,270.136 41.397 C 270.076 41.104,269.455 40.805,268.636 40.674 C 267.786 40.538,266.761 40.032,266.024 39.385 L 264.810 38.319 265.969 38.551 C 267.581 38.873,267.129 38.549,264.049 37.175 C 257.364 34.194,255.666 33.640,249.559 32.454 C 246.154 31.793,242.602 31.033,241.667 30.765 C 240.731 30.497,237.656 29.989,234.832 29.635 C 232.008 29.282,229.406 28.840,229.050 28.655 C 226.799 27.482,221.433 26.839,215.865 27.074 C 211.024 27.279,210.152 27.235,209.156 26.738 C 208.220 26.271,206.949 26.165,202.219 26.158 C 199.034 26.153,194.898 26.093,193.027 26.024 C 191.156 25.955,188.794 26.028,187.777 26.185 M223.810 27.891 L 224.660 28.163 223.810 28.157 C 223.342 28.154,222.500 28.034,221.939 27.891 L 220.918 27.632 221.939 27.625 C 222.500 27.622,223.342 27.741,223.810 27.891 M235.358 32.302 C 237.905 32.548,238.682 32.751,239.099 33.279 C 239.810 34.178,242.387 34.677,248.129 35.029 C 255.221 35.464,260.063 37.419,258.243 39.114 C 257.425 39.876,257.190 39.820,252.211 37.669 C 248.760 36.178,247.959 35.927,247.959 36.335 C 247.959 36.514,248.360 36.762,248.850 36.884 C 249.339 37.007,249.668 37.180,249.580 37.268 C 249.492 37.356,248.480 37.135,247.329 36.777 C 245.583 36.233,244.277 36.290,245.663 36.850 C 246.562 37.212,243.582 37.052,240.986 36.598 C 239.490 36.336,237.079 36.013,235.629 35.878 C 234.179 35.744,232.993 35.505,232.993 35.346 C 232.993 34.774,231.672 34.375,228.535 34.000 C 224.522 33.520,224.049 33.371,225.170 32.934 C 227.265 32.117,231.029 31.884,235.358 32.302 M231.633 33.252 C 231.633 33.444,231.875 33.694,232.171 33.807 C 233.055 34.146,236.395 34.041,236.395 33.673 C 236.395 33.486,235.897 33.332,235.289 33.330 C 234.681 33.328,233.610 33.231,232.908 33.115 C 232.127 32.986,231.633 33.039,231.633 33.252 M173.129 34.123 C 173.129 34.430,172.270 34.673,170.398 34.895 C 168.029 35.176,167.680 35.150,167.766 34.704 C 167.943 33.786,173.129 33.224,173.129 34.123 M177.381 34.338 C 176.585 34.697,175.886 34.828,175.697 34.653 C 175.520 34.488,175.022 34.354,174.592 34.354 C 174.162 34.354,173.810 34.201,173.810 34.014 C 173.810 33.816,174.841 33.684,176.276 33.699 L 178.741 33.724 177.381 34.338 M255.612 40.204 C 257.857 40.991,259.875 41.872,260.096 42.161 C 260.964 43.296,259.250 42.844,255.093 40.840 C 250.053 38.412,250.153 38.290,255.612 40.204 M268.190 39.468 C 267.958 39.843,270.189 40.816,271.280 40.816 C 272.379 40.816,272.651 40.194,271.704 39.845 C 270.379 39.357,268.390 39.143,268.190 39.468 M277.888 46.577 C 280.969 47.702,285.034 49.853,285.034 50.359 C 285.034 50.538,284.384 50.213,283.588 49.636 C 282.454 48.813,281.886 48.619,280.952 48.734 C 280.147 48.834,279.243 48.622,278.158 48.080 C 276.426 47.215,275.676 47.062,276.038 47.647 C 276.288 48.052,274.084 47.002,273.810 46.586 C 273.716 46.444,273.104 46.102,272.449 45.826 L 271.259 45.324 273.183 45.443 C 274.241 45.509,276.358 46.019,277.888 46.577 M120.578 52.200 C 120.017 52.660,119.328 53.037,119.048 53.038 C 118.767 53.039,119.150 52.663,119.898 52.202 C 121.630 51.135,121.878 51.135,120.578 52.200 M190.601 52.884 C 194.813 54.878,199.533 60.550,202.736 67.465 C 204.567 71.418,204.265 71.422,206.122 67.417 C 212.011 54.716,220.218 49.283,227.967 52.954 C 239.505 58.420,237.223 70.603,221.036 89.959 C 217.915 93.691,207.754 104.221,205.715 105.835 L 204.428 106.855 198.940 101.472 C 177.182 80.128,169.120 64.209,176.124 56.419 C 180.084 52.015,185.811 50.616,190.601 52.884 M285.012 53.373 C 286.445 54.474,287.755 55.154,287.755 54.795 C 287.755 54.437,285.039 52.715,284.494 52.729 C 284.323 52.733,284.556 53.023,285.012 53.373 M135.526 54.592 C 133.878 56.194,133.524 56.366,133.142 55.748 C 132.723 55.070,134.833 53.615,137.003 53.085 C 137.057 53.072,136.392 53.750,135.526 54.592 M291.837 54.760 C 291.837 55.068,297.161 58.689,298.199 59.088 C 298.441 59.180,298.639 59.097,298.639 58.902 C 298.639 58.707,298.111 58.356,297.464 58.123 C 296.716 57.852,296.253 57.443,296.189 56.995 C 296.035 55.918,291.837 53.762,291.837 54.760 M291.156 56.973 C 291.596 57.440,292.082 57.823,292.236 57.823 C 292.391 57.823,292.517 57.440,292.517 56.973 C 292.517 56.244,292.362 56.122,291.437 56.122 L 290.358 56.122 291.156 56.973 M131.633 57.179 C 131.352 57.363,128.976 58.849,126.353 60.480 C 76.132 91.708,49.451 149.795,57.853 209.611 C 58.348 213.129,58.462 214.910,58.237 215.564 L 57.915 216.497 57.575 215.136 C 57.388 214.388,57.057 212.439,56.840 210.806 C 56.623 209.173,56.066 206.160,55.604 204.109 C 54.694 200.079,54.545 198.790,55.089 199.650 C 55.724 200.655,55.865 199.634,55.296 198.145 C 54.975 197.303,54.818 196.444,54.947 196.234 C 55.076 196.025,54.842 195.393,54.425 194.830 C 53.183 193.150,52.841 190.098,53.513 186.711 C 53.826 185.134,54.082 182.662,54.082 181.218 C 54.082 178.958,54.157 178.622,54.623 178.800 C 55.191 179.019,55.119 175.820,54.414 169.558 C 54.163 167.327,54.230 166.931,55.473 163.265 C 56.682 159.701,56.750 159.317,56.240 158.939 C 55.782 158.599,55.759 158.431,56.112 158.006 C 56.349 157.720,56.462 157.179,56.364 156.802 C 56.245 156.348,56.430 155.945,56.913 155.607 C 57.323 155.320,57.663 154.690,57.691 154.164 C 57.719 153.651,58.281 151.777,58.940 150.000 C 60.019 147.093,60.178 146.212,60.522 141.216 C 61.019 133.992,62.572 126.382,63.383 127.193 C 63.580 127.390,64.021 127.551,64.362 127.551 C 64.942 127.551,64.948 127.619,64.460 128.563 C 64.172 129.120,63.401 131.586,62.747 134.043 C 62.093 136.501,61.474 138.648,61.371 138.814 C 61.268 138.980,61.329 139.116,61.505 139.116 C 61.681 139.116,61.910 138.794,62.012 138.401 C 62.115 138.008,62.358 137.785,62.552 137.905 C 62.751 138.027,63.000 137.707,63.122 137.174 C 64.188 132.504,64.988 129.816,65.410 129.481 C 66.424 128.675,67.778 126.117,67.335 125.843 C 67.060 125.673,66.994 125.192,67.140 124.442 C 67.407 123.072,70.380 116.277,70.393 117.007 C 70.398 117.287,70.020 118.336,69.555 119.336 C 68.554 121.485,68.525 121.662,69.273 121.045 C 70.128 120.340,70.987 118.092,71.249 115.874 C 71.406 114.556,71.703 113.704,72.137 113.333 C 72.496 113.025,72.789 112.630,72.789 112.454 C 72.789 111.849,75.289 107.863,75.628 107.928 C 75.928 107.986,85.229 94.310,86.850 91.427 C 87.421 90.412,87.514 90.366,87.908 90.906 C 88.428 91.616,88.776 91.666,88.776 91.029 C 88.776 90.772,89.407 89.892,90.179 89.074 C 90.950 88.255,91.491 87.853,91.380 88.180 C 91.269 88.508,91.311 88.776,91.474 88.776 C 91.637 88.776,91.924 88.334,92.113 87.793 C 92.301 87.253,93.425 86.021,94.612 85.054 C 95.798 84.087,97.381 82.431,98.129 81.373 C 99.089 80.016,100.077 79.120,101.487 78.328 C 103.895 76.974,106.874 74.539,106.621 74.131 C 106.521 73.968,107.094 73.506,107.896 73.103 C 110.804 71.643,112.379 70.082,110.969 70.058 C 110.444 70.049,110.453 70.002,111.045 69.659 C 111.413 69.445,112.454 68.531,113.357 67.628 C 114.260 66.725,115.231 65.986,115.516 65.986 C 116.410 65.986,118.964 64.003,119.962 62.533 C 120.901 61.149,122.951 59.404,122.298 60.544 C 122.137 60.825,121.775 61.322,121.494 61.650 C 121.039 62.180,121.040 62.245,121.504 62.245 C 121.791 62.245,122.203 62.031,122.420 61.770 C 122.637 61.509,123.084 61.365,123.413 61.451 C 123.754 61.540,124.740 61.086,125.697 60.399 C 126.623 59.734,128.376 58.660,129.592 58.013 C 131.726 56.877,132.689 56.483,131.633 57.179 M301.531 58.163 C 302.175 58.875,303.061 59.079,303.061 58.515 C 303.061 58.143,301.955 57.483,301.330 57.483 C 301.070 57.483,301.145 57.737,301.531 58.163 M297.959 62.012 C 297.959 62.258,298.511 62.722,299.184 63.043 C 299.858 63.365,300.488 63.929,300.585 64.297 C 300.681 64.665,301.010 64.967,301.315 64.969 C 302.231 64.974,305.252 66.870,306.365 68.138 C 309.017 71.158,310.971 70.187,309.882 66.391 C 309.563 65.278,309.580 65.286,311.838 67.302 C 315.045 70.166,319.022 74.301,318.135 73.848 C 316.238 72.881,316.092 74.328,317.942 75.758 C 320.371 77.635,322.734 78.806,321.629 77.585 C 321.274 77.192,321.178 76.855,321.385 76.727 C 321.709 76.528,327.211 82.742,327.211 83.307 C 327.211 83.723,331.981 87.861,332.203 87.638 C 332.312 87.529,331.389 86.497,330.152 85.345 C 328.915 84.192,327.991 83.107,328.099 82.932 C 328.207 82.757,326.837 81.111,325.055 79.273 C 323.272 77.436,321.325 75.140,320.729 74.171 C 320.073 73.104,319.468 72.476,319.198 72.579 C 318.510 72.844,315.593 70.280,313.793 67.829 C 312.227 65.696,309.987 64.063,309.073 64.388 C 308.853 64.467,307.931 64.159,307.024 63.705 C 304.850 62.617,304.829 62.756,306.820 65.089 C 307.746 66.174,308.503 67.136,308.503 67.228 C 308.503 67.630,306.337 65.796,305.189 64.422 C 304.494 63.591,303.734 62.986,303.500 63.076 C 303.265 63.166,302.267 62.864,301.281 62.405 C 299.302 61.484,297.959 61.325,297.959 62.012 M306.122 62.145 C 306.122 62.658,308.394 63.668,309.224 63.523 C 309.980 63.392,309.955 63.347,308.844 62.854 C 307.082 62.073,306.122 61.823,306.122 62.145 M311.224 72.385 C 311.224 73.016,313.189 74.548,313.453 74.122 C 313.616 73.858,313.365 73.398,312.791 72.903 C 311.850 72.094,311.224 71.887,311.224 72.385 M323.980 76.963 C 325.942 78.408,327.832 80.310,328.963 81.976 C 330.263 83.893,330.920 84.132,330.878 82.671 C 330.855 81.866,330.440 81.342,328.775 80.016 C 324.780 76.833,323.878 76.191,323.420 76.201 C 323.167 76.207,323.418 76.550,323.980 76.963 M95.917 81.548 C 95.913 82.330,94.527 83.981,94.034 83.791 C 93.588 83.620,93.689 83.380,94.602 82.438 C 95.767 81.235,95.919 81.132,95.917 81.548 M325.522 84.257 C 325.481 85.745,328.323 88.939,329.489 88.714 C 329.944 88.627,329.552 88.046,327.807 86.222 C 326.556 84.914,325.528 84.030,325.522 84.257 M334.694 89.430 C 334.694 89.866,337.450 91.915,337.700 91.666 C 337.796 91.569,337.581 91.259,337.220 90.978 C 335.284 89.465,334.694 89.104,334.694 89.430 M335.610 92.883 C 335.948 93.458,336.647 94.415,337.163 95.009 L 338.101 96.088 337.881 95.068 C 337.549 93.530,336.769 92.135,336.739 93.027 C 336.720 93.616,336.639 93.582,336.137 92.772 C 335.337 91.483,334.848 91.586,335.610 92.883 M178.612 96.506 C 182.378 98.731,183.842 110.194,181.832 121.719 C 181.216 125.247,181.748 124.968,176.850 124.331 C 158.829 121.986,150.934 116.408,156.012 109.608 C 158.214 106.660,162.232 106.515,167.942 109.177 C 170.203 110.231,170.310 110.171,169.719 108.161 C 167.427 100.369,172.934 93.152,178.612 96.506 M239.965 96.700 C 242.766 98.286,243.869 102.692,242.773 107.918 C 242.506 109.186,242.378 110.173,242.488 110.112 C 249.436 106.208,255.058 106.407,257.102 110.629 C 260.252 117.136,253.224 121.782,236.615 124.171 C 230.677 125.025,231.132 125.294,230.472 120.537 C 227.926 102.185,231.924 92.146,239.965 96.700 M336.735 96.557 C 336.735 96.721,336.982 97.060,337.284 97.311 C 337.586 97.562,338.280 98.559,338.827 99.528 C 339.610 100.916,339.963 101.253,340.489 101.116 C 340.856 101.020,341.156 101.102,341.156 101.298 C 341.156 101.494,342.013 102.545,343.059 103.633 C 344.106 104.722,344.902 105.383,344.828 105.102 C 343.936 101.714,343.197 100.321,343.197 102.028 C 343.197 102.764,340.151 99.966,338.303 97.534 C 337.378 96.316,336.735 95.915,336.735 96.557 M337.508 100.712 C 337.632 102.078,337.921 103.035,338.355 103.518 C 339.244 104.507,339.678 105.280,339.168 104.964 C 338.454 104.523,338.761 105.491,339.541 106.142 C 341.202 107.528,341.227 106.726,339.622 103.552 C 338.965 102.253,338.333 100.616,338.218 99.915 C 337.867 97.778,337.300 98.415,337.508 100.712 M334.066 106.599 C 334.393 107.175,334.318 107.164,333.379 106.495 C 332.143 105.615,331.287 104.482,331.305 103.751 C 331.318 103.229,333.337 105.312,334.066 106.599 M341.837 106.100 C 341.837 107.149,342.564 108.163,343.317 108.163 C 343.767 108.163,344.328 108.397,344.565 108.682 C 344.801 108.967,345.078 109.117,345.180 109.015 C 345.392 108.804,342.518 105.782,342.106 105.782 C 341.958 105.782,341.837 105.925,341.837 106.100 M348.301 117.010 C 349.417 119.096,352.381 122.920,352.381 122.275 C 352.381 121.887,348.475 116.327,348.202 116.327 C 348.055 116.327,348.100 116.634,348.301 117.010 M350.436 117.792 C 350.758 118.282,351.025 118.880,351.030 119.121 C 351.035 119.361,351.508 120.094,352.081 120.748 C 352.777 121.543,353.053 121.713,352.911 121.259 C 352.755 120.760,352.932 120.850,353.575 121.599 L 354.451 122.619 354.225 121.088 C 353.996 119.541,352.964 117.687,352.331 117.687 C 352.125 117.687,352.077 118.099,352.211 118.707 C 352.516 120.095,352.172 119.991,351.448 118.477 C 351.119 117.789,350.626 117.153,350.351 117.063 C 349.949 116.932,349.966 117.074,350.436 117.792 M353.657 124.203 C 353.788 124.705,353.725 124.860,353.455 124.693 C 352.809 124.293,353.004 125.144,353.966 126.910 C 355.497 129.723,355.996 128.716,354.737 125.353 C 354.060 123.541,353.262 122.692,353.657 124.203 M355.782 127.544 C 355.782 128.178,357.137 130.612,357.490 130.612 C 357.954 130.612,357.917 130.428,357.148 128.921 C 356.453 127.560,355.782 126.883,355.782 127.544 M355.963 140.561 C 356.212 142.062,357.074 144.060,357.352 143.781 C 357.440 143.694,357.257 142.608,356.946 141.369 C 356.314 138.855,355.579 138.251,355.963 140.561 M357.506 140.922 C 357.493 141.634,358.100 144.050,358.854 146.291 C 359.609 148.531,360.241 150.932,360.260 151.627 C 360.281 152.384,360.573 153.198,360.989 153.656 C 362.536 155.361,362.476 155.021,359.644 145.918 C 357.669 139.571,357.536 139.260,357.506 140.922 M54.848 153.353 C 55.020 154.012,54.575 155.102,54.133 155.102 C 53.993 155.102,53.941 154.566,54.017 153.912 C 54.168 152.621,54.583 152.342,54.848 153.353 M52.917 157.550 C 52.277 158.462,52.224 158.200,52.793 156.950 C 53.020 156.453,53.261 156.212,53.329 156.415 C 53.397 156.619,53.211 157.129,52.917 157.550 M55.437 159.618 L 56.183 160.140 55.451 161.788 C 54.529 163.865,54.201 163.415,53.916 159.675 C 53.722 157.136,53.739 157.037,54.201 158.035 C 54.471 158.619,55.028 159.331,55.437 159.618 M361.737 159.524 C 362.235 161.225,362.898 162.585,363.229 162.585 C 363.415 162.585,363.252 161.858,362.866 160.969 C 362.059 159.109,361.350 158.201,361.737 159.524 M358.780 187.891 C 356.665 189.203,356.560 189.102,356.374 185.559 L 356.214 182.513 357.551 185.169 C 358.286 186.630,358.839 187.855,358.780 187.891 M363.787 211.487 C 363.330 212.679,362.985 211.334,363.372 209.867 L 363.776 208.340 363.883 209.648 C 363.942 210.367,363.899 211.195,363.787 211.487 M60.031 221.251 C 60.358 222.744,60.704 224.198,60.800 224.482 C 60.896 224.767,60.514 224.388,59.950 223.639 C 58.752 222.049,58.346 220.506,58.670 218.776 C 58.969 217.184,59.255 217.705,60.031 221.251 M352.721 225.984 C 352.721 227.532,352.629 228.890,352.517 229.002 C 352.198 229.322,350.638 228.494,350.791 228.086 C 350.866 227.885,351.209 226.622,351.553 225.278 C 352.347 222.181,352.721 222.407,352.721 225.984 M325.405 227.867 C 324.806 231.659,323.748 235.556,322.444 238.776 C 321.749 240.492,321.691 241.151,321.742 246.769 C 321.889 262.982,316.767 271.106,306.028 271.690 L 303.042 271.853 301.838 273.666 C 297.324 280.466,288.899 283.731,280.788 281.824 L 278.752 281.345 276.964 283.036 C 272.350 287.399,265.025 288.330,259.560 285.247 C 258.811 284.825,258.546 284.914,256.251 286.356 C 253.238 288.251,253.253 288.044,256.047 289.266 C 272.126 296.299,281.633 301.999,281.633 304.606 C 281.633 307.731,276.518 309.032,235.544 316.335 C 220.245 319.061,212.576 320.547,209.912 321.300 L 209.109 321.527 209.231 328.568 C 209.373 336.702,208.780 338.428,206.654 336.078 C 205.899 335.244,205.441 322.874,206.079 320.545 C 206.758 318.067,207.101 317.980,238.435 312.415 C 262.019 308.226,275.283 305.494,277.175 304.435 C 278.203 303.860,267.539 298.103,254.855 292.385 L 248.996 289.744 246.012 289.977 C 239.760 290.464,232.425 288.420,226.646 284.579 L 224.891 283.413 223.415 284.413 C 210.322 293.285,193.649 292.714,183.577 283.047 C 182.306 281.828,182.278 281.819,181.366 282.388 C 176.365 285.502,172.523 286.817,168.270 286.868 C 166.434 286.891,165.188 287.055,165.038 287.294 C 164.905 287.507,161.582 289.108,157.653 290.851 C 148.774 294.789,136.644 300.809,133.564 302.804 L 131.244 304.308 133.734 305.038 C 139.192 306.637,147.027 308.200,171.429 312.556 C 199.452 317.559,201.592 318.044,202.634 319.639 C 204.221 322.067,203.166 336.735,201.405 336.735 C 199.792 336.735,199.649 335.979,199.885 328.673 C 200.098 322.078,200.083 321.837,199.424 321.485 C 198.398 320.935,188.906 319.051,172.619 316.162 C 129.983 308.599,125.377 307.264,127.864 303.184 C 129.225 300.952,140.607 294.744,155.187 288.280 C 162.092 285.219,161.763 285.562,159.290 284.014 C 157.396 282.828,154.543 279.771,153.565 277.879 L 153.050 276.884 151.516 278.054 C 142.220 285.150,129.087 284.413,120.391 276.307 L 118.844 274.864 117.160 275.668 C 100.230 283.749,81.847 268.198,79.587 243.883 C 79.316 240.962,79.014 239.547,78.390 238.271 C 77.435 236.316,76.308 231.484,75.977 227.923 C 75.683 224.764,75.875 224.774,71.206 227.663 C 68.990 229.034,66.242 230.665,65.099 231.287 L 63.021 232.417 63.704 234.520 C 64.154 235.902,64.304 236.955,64.143 237.596 C 63.845 238.786,63.514 238.376,62.763 235.884 C 61.914 233.066,61.986 233.095,58.965 234.353 C 54.200 236.337,51.670 236.126,48.399 233.473 L 47.309 232.589 48.154 235.672 C 51.157 246.632,55.777 257.168,65.623 275.510 C 70.406 284.421,71.937 287.040,71.288 285.204 C 71.021 284.446,71.072 284.497,72.929 286.838 C 73.642 287.737,74.311 288.387,74.416 288.283 C 74.520 288.178,74.305 287.749,73.936 287.329 C 72.482 285.668,72.323 285.374,72.882 285.374 C 73.180 285.374,74.212 286.812,75.329 288.785 C 77.793 293.137,86.395 302.151,86.395 300.382 C 86.395 300.218,86.166 299.894,85.888 299.663 C 85.583 299.410,85.456 298.941,85.570 298.487 C 85.674 298.072,85.451 296.528,85.073 295.055 C 84.639 293.359,84.503 292.236,84.704 291.995 C 84.916 291.739,84.490 291.051,83.412 289.913 C 82.527 288.978,81.360 287.383,80.819 286.369 L 79.835 284.524 81.104 285.714 C 83.258 287.735,85.117 290.125,85.336 291.155 C 85.796 293.325,96.358 303.908,99.123 304.969 C 99.418 305.082,99.660 305.375,99.660 305.620 C 99.660 306.946,107.519 313.075,111.833 315.114 C 113.146 315.734,113.946 316.321,113.946 316.664 C 113.946 316.967,114.596 317.690,115.391 318.270 C 116.186 318.850,118.317 320.450,120.126 321.826 C 129.262 328.774,152.578 340.064,156.164 339.277 C 157.003 339.092,160.896 339.487,163.209 339.990 C 164.494 340.270,163.764 339.617,162.224 339.109 L 160.808 338.641 162.087 338.199 C 163.257 337.794,163.514 337.828,165.101 338.602 C 166.056 339.067,166.492 339.363,166.071 339.259 C 165.528 339.125,165.306 339.221,165.306 339.591 C 165.306 340.321,166.270 340.762,170.350 341.899 C 172.306 342.444,174.305 343.095,174.793 343.345 C 176.910 344.433,198.750 347.279,204.981 347.279 C 205.495 347.279,205.782 347.478,205.782 347.833 C 205.782 348.452,208.564 348.239,208.787 347.603 C 208.849 347.425,209.658 347.279,210.585 347.279 C 212.142 347.279,212.242 347.328,211.918 347.935 C 211.506 348.704,212.771 350.466,214.046 350.898 C 214.749 351.137,214.733 351.168,213.776 351.387 C 211.966 351.801,202.099 351.709,202.976 351.286 C 203.812 350.883,203.990 350.164,203.316 349.917 C 202.889 349.761,200.171 350.090,197.959 350.566 L 196.769 350.822 197.865 351.006 C 198.672 351.142,198.886 351.311,198.677 351.645 C 198.443 352.019,197.765 352.029,194.860 351.701 C 188.899 351.030,182.744 350.868,183.251 351.397 C 183.555 351.713,184.519 351.814,186.568 351.743 C 188.295 351.683,189.456 351.777,189.456 351.976 C 189.456 352.172,191.673 352.390,194.813 352.505 C 197.759 352.612,200.859 352.790,201.701 352.900 C 202.676 353.029,203.067 352.988,202.778 352.789 C 202.042 352.281,206.973 352.061,210.139 352.460 C 213.262 352.854,214.947 352.557,216.315 351.371 C 216.744 350.999,217.612 350.598,218.245 350.479 C 220.143 350.123,219.901 349.663,217.792 349.620 C 216.705 349.597,215.357 349.470,214.796 349.337 C 213.194 348.957,216.558 348.492,218.779 348.787 C 219.952 348.942,220.594 348.890,220.758 348.624 C 221.164 347.968,224.873 346.549,227.041 346.221 C 228.163 346.051,229.802 345.557,230.683 345.124 C 231.852 344.549,232.329 344.449,232.447 344.756 C 232.537 344.992,232.246 345.266,231.780 345.383 C 231.325 345.498,230.952 345.752,230.952 345.948 C 230.952 346.144,231.220 346.226,231.548 346.129 C 231.875 346.033,232.717 345.853,233.418 345.729 C 234.120 345.604,234.694 345.384,234.694 345.240 C 234.694 344.412,240.480 342.823,243.076 342.939 C 244.172 342.987,245.451 342.895,245.918 342.734 C 246.521 342.526,246.668 342.547,246.424 342.806 C 246.234 343.008,244.474 343.412,242.512 343.704 C 237.062 344.516,235.318 345.261,238.124 345.578 L 239.626 345.748 235.940 347.221 C 233.913 348.031,231.234 348.891,229.987 349.132 C 228.741 349.373,227.951 349.657,228.231 349.762 C 229.213 350.130,232.951 350.218,232.887 349.871 C 232.828 349.556,235.470 348.689,237.995 348.195 C 238.897 348.019,239.050 348.075,238.879 348.519 C 238.706 348.971,238.857 349.016,239.830 348.804 C 242.544 348.214,243.508 347.459,241.071 347.832 C 240.276 347.954,239.738 347.933,239.874 347.786 C 240.188 347.449,247.029 346.266,248.688 346.262 C 249.453 346.260,249.999 346.070,250.116 345.767 C 250.220 345.497,250.886 345.168,251.598 345.035 C 252.309 344.903,253.209 344.588,253.599 344.335 C 253.988 344.082,254.387 343.956,254.486 344.055 C 254.585 344.154,255.398 343.921,256.293 343.537 C 258.476 342.601,258.100 342.399,255.598 343.164 C 252.687 344.053,250.688 344.341,251.557 343.746 C 252.947 342.794,259.213 340.169,259.674 340.345 C 259.940 340.448,260.740 340.136,261.451 339.654 C 262.319 339.064,263.191 338.778,264.110 338.783 L 265.476 338.791 264.626 339.456 C 263.434 340.388,263.747 340.318,267.736 338.762 C 274.389 336.168,275.737 335.478,280.721 332.114 C 283.469 330.259,286.632 328.206,287.750 327.551 C 288.869 326.896,291.472 325.021,293.537 323.384 C 295.601 321.747,297.458 320.408,297.663 320.408 C 298.943 320.408,307.483 314.013,307.483 313.054 C 307.483 312.449,313.335 307.150,314.008 307.146 C 314.323 307.144,316.507 305.246,318.862 302.927 C 321.216 300.608,323.827 298.149,324.665 297.463 C 327.487 295.151,336.648 282.517,336.036 281.781 C 335.831 281.534,336.016 281.128,336.569 280.608 C 337.034 280.171,337.416 279.572,337.416 279.277 C 337.417 278.983,337.747 278.206,338.150 277.551 C 338.554 276.896,339.457 275.206,340.157 273.795 C 340.857 272.384,342.371 269.782,343.519 268.013 C 349.121 259.386,355.684 243.620,360.329 227.636 C 360.986 225.374,360.953 225.386,358.903 228.151 C 356.745 231.062,353.113 234.565,351.596 235.199 C 350.771 235.543,350.375 235.962,350.239 236.635 C 350.134 237.158,349.578 238.580,349.004 239.796 L 347.960 242.007 348.063 238.898 L 348.165 235.789 346.247 235.255 C 343.007 234.354,335.351 230.262,327.872 225.433 L 325.982 224.213 325.405 227.867 M66.333 242.517 C 66.349 242.236,66.823 243.155,67.386 244.558 C 68.980 248.529,73.568 257.831,76.221 262.468 C 78.313 266.125,78.594 266.814,78.385 267.774 C 78.156 268.831,78.173 268.854,78.784 268.322 C 79.391 267.793,79.508 267.896,81.198 270.459 L 82.974 273.151 81.589 272.035 C 77.724 268.917,77.006 268.089,75.907 265.476 L 75.478 264.456 76.332 265.476 C 77.959 267.419,77.203 265.853,75.340 263.421 C 74.311 262.078,73.469 260.799,73.469 260.579 C 73.469 260.360,72.781 258.967,71.939 257.483 C 71.097 255.999,70.408 254.654,70.408 254.492 C 70.408 254.331,69.719 253.449,68.878 252.532 C 67.305 250.820,66.960 250.119,67.857 250.463 C 68.953 250.884,68.469 248.000,67.040 245.599 C 65.582 243.149,64.775 241.080,65.770 242.347 C 66.179 242.867,66.312 242.907,66.333 242.517 M344.905 247.892 C 344.552 249.919,344.092 251.321,342.708 254.587 L 342.278 255.604 341.720 254.524 C 341.199 253.518,341.251 252.381,341.816 252.381 C 341.952 252.381,342.223 251.860,342.418 251.222 C 343.116 248.950,345.070 244.648,345.183 245.136 C 345.247 245.409,345.121 246.649,344.905 247.892 M66.962 248.705 C 67.613 249.924,67.632 250.031,67.072 249.342 C 66.027 248.057,65.077 246.346,65.679 246.834 C 65.954 247.058,66.532 247.899,66.962 248.705 M335.902 263.861 C 335.438 264.749,334.728 265.859,334.325 266.327 L 333.593 267.177 334.087 266.327 C 334.359 265.859,335.004 264.749,335.520 263.861 C 336.037 262.972,336.524 262.245,336.603 262.245 C 336.682 262.245,336.366 262.972,335.902 263.861 M333.326 271.003 C 333.318 271.639,332.553 272.675,331.495 273.484 C 330.863 273.968,330.861 273.952,331.435 272.843 C 332.297 271.175,331.878 271.181,330.530 272.856 C 328.862 274.926,325.033 280.661,324.953 281.208 C 324.788 282.329,319.371 288.454,311.153 296.811 C 307.451 300.575,304.422 303.890,304.422 304.177 C 304.422 304.863,301.991 306.856,297.789 309.616 C 295.918 310.845,293.582 312.542,292.598 313.388 C 290.163 315.480,289.107 316.188,288.042 316.446 C 287.545 316.566,286.869 316.767,286.540 316.893 C 286.132 317.050,286.021 316.996,286.189 316.724 C 287.075 315.291,281.956 319.229,279.824 321.621 C 278.904 322.654,277.887 323.469,277.519 323.469 C 277.157 323.469,276.016 324.158,274.982 325.000 C 273.494 326.212,272.840 326.528,271.841 326.520 C 270.661 326.510,270.621 326.476,271.234 326.013 C 273.533 324.273,268.422 326.003,262.287 329.040 C 258.606 330.862,257.428 331.293,256.121 331.293 C 254.505 331.293,253.458 331.920,253.895 332.627 C 254.145 333.031,255.562 332.794,258.131 331.919 C 260.498 331.113,260.969 331.129,259.694 331.971 C 256.913 333.810,254.552 334.392,249.346 334.523 C 243.745 334.664,242.578 334.804,239.456 335.707 C 238.240 336.059,236.480 336.492,235.544 336.668 C 234.609 336.845,233.537 337.099,233.163 337.234 C 232.618 337.431,232.584 337.406,232.993 337.112 C 233.764 336.558,231.878 336.631,229.592 337.245 C 227.367 337.842,227.105 337.862,227.381 337.415 C 227.684 336.924,227.307 336.996,226.376 337.606 C 225.909 337.912,224.150 338.279,222.222 338.472 C 220.382 338.656,218.074 338.927,217.092 339.074 C 216.052 339.229,215.306 339.211,215.306 339.031 C 215.306 338.861,214.809 338.808,214.201 338.915 C 213.593 339.021,213.287 339.020,213.520 338.913 C 214.540 338.447,213.729 338.265,210.630 338.265 C 208.805 338.265,206.127 338.137,204.677 337.981 C 202.834 337.783,202.041 337.808,202.041 338.066 C 202.041 338.291,202.841 338.435,204.082 338.435 C 205.857 338.435,206.122 338.519,206.122 339.079 C 206.122 340.385,202.301 340.215,199.071 338.765 C 198.179 338.364,196.596 337.859,195.553 337.641 C 193.976 337.312,195.695 337.245,205.757 337.245 C 240.313 337.245,269.553 327.649,296.429 307.488 C 308.910 298.125,324.708 281.568,330.474 271.806 C 330.810 271.238,331.323 270.708,331.614 270.630 C 332.801 270.309,333.333 270.425,333.326 271.003 M74.477 275.995 C 74.499 276.532,72.819 274.769,72.092 273.492 C 71.476 272.409,71.566 272.462,72.933 273.980 C 73.775 274.915,74.470 275.822,74.477 275.995 M84.350 275.085 C 84.973 275.974,85.274 276.509,85.020 276.276 C 84.766 276.042,84.264 275.850,83.906 275.850 C 83.438 275.850,83.301 275.672,83.419 275.218 C 83.510 274.871,83.444 274.335,83.272 274.028 C 82.656 272.928,83.238 273.499,84.350 275.085 M103.496 297.377 C 104.037 298.793,103.487 298.681,101.410 296.953 C 99.494 295.359,99.300 295.081,99.490 294.215 C 99.684 293.333,99.527 293.132,97.629 291.843 C 94.746 289.886,93.197 288.467,93.197 287.785 C 93.197 287.466,92.973 286.908,92.698 286.545 C 92.423 286.181,92.194 285.759,92.188 285.606 C 92.170 285.139,103.212 296.634,103.496 297.377 M81.293 298.511 C 81.293 298.858,83.159 301.346,83.425 301.353 C 83.869 301.366,82.375 298.736,81.817 298.522 C 81.529 298.411,81.293 298.406,81.293 298.511 M111.905 304.345 C 112.185 304.626,111.385 304.079,110.125 303.129 C 108.866 302.179,107.626 301.277,107.369 301.126 C 107.112 300.974,106.711 300.487,106.477 300.042 C 106.117 299.357,109.995 302.431,111.905 304.345 M86.542 302.487 C 86.208 303.357,86.579 303.969,87.598 304.224 C 88.964 304.567,89.037 304.186,87.837 302.986 C 86.916 302.065,86.731 301.994,86.542 302.487 M121.064 311.278 C 121.135 311.934,119.394 310.853,116.521 308.455 C 112.001 304.682,112.153 304.540,116.948 308.055 C 119.199 309.705,121.051 311.155,121.064 311.278 M87.075 305.770 C 87.075 306.170,88.421 306.930,88.677 306.675 C 88.777 306.574,88.769 306.256,88.658 305.967 C 88.440 305.400,87.075 305.230,87.075 305.770 M124.745 313.545 C 125.727 314.193,126.531 314.786,126.531 314.864 C 126.531 315.063,123.286 313.219,122.363 312.496 C 121.058 311.472,122.691 312.192,124.745 313.545 M303.469 316.071 C 303.274 316.305,302.604 316.788,301.982 317.145 C 300.648 317.909,300.870 317.590,302.450 316.472 C 303.736 315.563,303.972 315.470,303.469 316.071 M140.688 322.691 C 140.463 322.915,136.867 321.284,136.224 320.666 C 135.791 320.249,136.495 320.479,138.168 321.299 C 139.612 322.007,140.745 322.633,140.688 322.691 M291.268 321.699 C 289.091 323.679,287.413 324.719,287.420 324.084 C 287.423 323.839,288.226 323.195,289.206 322.652 C 290.185 322.108,290.794 321.598,290.559 321.517 C 289.952 321.309,291.484 320.090,292.347 320.095 C 292.876 320.098,292.637 320.454,291.268 321.699 M109.483 321.299 C 110.489 321.758,111.384 322.063,111.472 321.975 C 111.716 321.731,108.951 320.405,108.262 320.436 C 107.927 320.451,108.476 320.840,109.483 321.299 M142.857 323.970 C 143.886 324.231,146.794 325.306,149.320 326.357 C 158.857 330.328,169.931 333.518,180.612 335.371 C 183.699 335.907,185.727 336.356,185.119 336.370 C 184.092 336.393,183.599 336.873,184.338 337.132 C 184.516 337.194,183.215 337.286,181.447 337.336 C 178.868 337.410,178.231 337.333,178.231 336.950 C 178.231 336.182,174.180 335.536,172.707 336.069 C 171.853 336.378,171.190 336.396,170.211 336.137 C 168.949 335.804,168.932 335.782,169.898 335.744 C 171.945 335.663,171.957 335.107,169.918 334.852 C 168.683 334.697,168.124 334.504,168.408 334.329 C 169.072 333.919,168.817 333.812,165.667 333.181 C 164.088 332.865,161.907 332.245,160.820 331.803 C 159.254 331.167,158.844 331.101,158.844 331.486 C 158.844 332.544,154.358 331.764,153.734 330.597 C 153.538 330.231,153.115 329.920,152.794 329.905 C 152.428 329.888,152.372 329.813,152.643 329.704 C 152.881 329.609,153.658 329.834,154.370 330.205 C 155.150 330.612,156.027 330.811,156.574 330.707 C 157.619 330.507,157.750 330.113,156.888 329.763 C 152.926 328.151,149.100 326.911,148.515 327.051 C 148.116 327.146,146.794 326.926,145.578 326.563 C 144.362 326.200,143.589 325.891,143.861 325.876 C 144.775 325.828,143.746 325.256,141.691 324.670 C 138.597 323.788,139.652 323.154,142.857 323.970 M114.627 325.425 C 114.628 325.719,127.650 332.618,127.861 332.437 C 128.290 332.069,126.229 330.639,122.761 328.899 C 120.594 327.812,118.353 326.528,117.780 326.046 C 116.810 325.230,114.624 324.800,114.627 325.425 M278.969 329.942 C 275.418 333.306,269.728 335.885,269.728 334.130 C 269.728 333.623,270.774 332.991,274.405 331.306 C 276.977 330.111,279.541 328.785,280.102 328.359 C 281.906 326.987,281.524 327.521,278.969 329.942 M125.510 329.710 C 125.510 329.904,129.047 331.973,129.378 331.973 C 129.878 331.973,129.524 331.371,128.643 330.719 C 127.748 330.057,125.510 329.337,125.510 329.710 M192.149 336.952 C 192.226 337.020,191.844 337.090,191.298 337.108 C 190.428 337.137,190.495 337.200,191.837 337.612 C 193.318 338.067,193.326 338.076,192.078 337.900 C 191.369 337.801,189.914 337.434,188.846 337.086 L 186.905 336.452 189.456 336.641 C 190.859 336.744,192.071 336.884,192.149 336.952 M229.694 338.659 C 229.509 339.141,229.659 339.194,230.725 339.021 C 231.411 338.909,231.973 338.879,231.973 338.953 C 231.973 339.261,227.572 340.403,225.680 340.586 L 223.639 340.784 225.657 340.115 C 228.127 339.296,228.507 338.974,226.701 339.233 C 223.365 339.710,221.616 339.855,221.825 339.637 C 222.004 339.449,224.703 338.932,229.666 338.135 C 229.801 338.113,229.813 338.349,229.694 338.659 M255.783 338.708 C 255.316 339.026,254.627 339.610,254.252 340.005 C 252.866 341.470,245.403 344.602,243.477 344.527 C 243.043 344.510,243.529 344.274,244.558 344.002 C 245.587 343.731,246.663 343.234,246.949 342.898 C 247.235 342.562,248.575 342.016,249.928 341.684 C 252.608 341.027,253.126 340.679,251.952 340.322 C 251.328 340.132,251.606 339.949,253.498 339.308 C 254.767 338.878,255.902 338.429,256.021 338.310 C 256.139 338.192,256.325 338.103,256.434 338.113 C 256.543 338.123,256.250 338.391,255.783 338.708 M134.762 339.151 C 134.955 339.729,137.459 340.485,138.062 340.148 C 138.394 339.962,139.016 340.076,139.784 340.463 C 140.445 340.796,141.369 341.173,141.837 341.301 L 142.687 341.533 141.884 340.834 C 141.165 340.209,141.147 340.133,141.714 340.110 C 142.459 340.079,139.240 338.841,138.314 338.802 C 137.887 338.784,137.746 338.941,137.878 339.286 C 137.986 339.566,138.021 339.796,137.957 339.796 C 137.893 339.796,137.190 339.566,136.395 339.286 C 134.665 338.676,134.602 338.670,134.762 339.151 M260.644 340.669 C 259.310 341.253,258.481 342.517,259.433 342.517 C 260.158 342.517,262.585 340.936,262.585 340.464 C 262.585 340.026,261.964 340.091,260.644 340.669 M146.939 341.856 C 149.880 342.497,151.639 342.682,151.269 342.312 C 150.996 342.040,145.980 341.162,144.898 341.198 C 144.430 341.213,145.349 341.509,146.939 341.856 M143.452 342.411 C 142.139 342.755,144.891 344.561,146.725 344.559 C 147.825 344.558,147.475 343.769,146.100 343.150 C 145.508 342.883,145.531 342.866,146.259 343.031 C 146.726 343.137,147.645 343.310,148.299 343.416 L 149.490 343.608 148.142 342.892 C 146.882 342.223,144.937 342.023,143.452 342.411 M164.541 343.781 C 163.133 343.994,163.407 344.415,165.373 345.058 C 166.344 345.375,168.044 346.092,169.148 346.650 C 171.669 347.922,171.854 347.758,169.913 345.968 C 168.636 344.792,168.142 344.553,166.929 344.531 C 166.130 344.516,165.668 344.427,165.903 344.332 C 166.330 344.160,166.157 343.492,165.711 343.588 C 165.582 343.616,165.055 343.703,164.541 343.781 M160.667 344.728 C 160.551 345.030,160.035 345.240,159.402 345.243 C 158.587 345.247,158.454 345.327,158.844 345.578 C 159.651 346.100,162.925 346.007,162.925 345.463 C 162.925 345.212,162.535 344.830,162.059 344.612 C 160.956 344.110,160.903 344.115,160.667 344.728 M227.704 345.194 C 227.209 345.648,225.510 345.973,225.510 345.613 C 225.510 345.211,226.125 344.959,227.194 344.925 C 227.686 344.909,227.895 345.019,227.704 345.194 M231.430 346.717 C 229.955 347.132,229.728 347.959,231.090 347.959 C 232.150 347.959,235.034 346.941,235.034 346.567 C 235.034 346.154,233.152 346.233,231.430 346.717 M167.606 347.692 C 167.508 347.986,166.590 348.076,164.431 348.002 C 162.761 347.945,161.471 347.968,161.565 348.054 C 162.450 348.869,165.304 349.848,165.122 349.274 C 164.871 348.484,168.318 348.278,172.194 348.851 C 173.002 348.970,173.469 348.904,173.469 348.669 C 173.469 348.466,173.048 348.298,172.534 348.295 C 172.020 348.293,170.757 348.065,169.728 347.789 C 168.699 347.513,167.832 347.285,167.800 347.283 C 167.769 347.281,167.682 347.465,167.606 347.692 M227.631 347.520 C 227.207 347.601,226.942 347.799,227.040 347.958 C 227.139 348.118,227.698 348.112,228.282 347.945 C 230.215 347.390,229.781 347.106,227.631 347.520 M185.741 348.296 C 182.716 348.645,183.727 349.320,187.273 349.320 C 189.097 349.320,190.514 349.244,190.421 349.151 C 189.941 348.671,187.057 348.144,185.741 348.296 M173.639 350.284 C 175.108 351.238,176.345 351.574,176.107 350.954 C 175.966 350.585,176.179 350.493,176.991 350.571 C 178.825 350.747,176.585 350.113,174.424 349.845 L 172.619 349.621 173.639 350.284 M224.367 351.190 C 224.109 351.861,225.159 351.868,226.040 351.201 C 226.666 350.728,226.645 350.701,225.632 350.691 C 224.987 350.685,224.485 350.883,224.367 351.190 M217.815 351.390 C 216.738 351.702,215.736 352.584,216.074 352.922 C 216.268 353.116,219.728 351.470,219.728 351.185 C 219.728 350.956,219.065 351.027,217.815 351.390 M176.701 352.381 C 175.761 352.785,177.169 352.796,179.082 352.400 L 180.442 352.119 178.912 352.104 C 178.070 352.095,177.075 352.220,176.701 352.381 M186.735 353.287 C 186.735 354.192,188.160 354.778,189.896 354.585 C 194.846 354.038,197.301 353.640,197.476 353.358 C 197.591 353.171,197.078 353.151,196.199 353.308 C 194.278 353.652,191.136 353.638,188.690 353.274 C 187.552 353.104,186.735 353.110,186.735 353.287 " stroke="none" fill="#dbebdb" fill-rule="evenodd"></path><path id="path2" d="M181.539 52.865 C 169.641 57.757,171.581 69.923,187.268 88.788 C 190.422 92.581,204.029 106.463,204.593 106.463 C 205.134 106.463,217.659 93.698,220.779 89.966 C 236.803 70.804,239.278 58.730,228.291 53.322 C 221.557 50.007,215.201 52.898,209.305 61.958 C 207.699 64.425,204.762 70.257,204.762 70.979 C 204.762 71.226,204.609 71.429,204.422 71.429 C 204.235 71.429,204.082 71.255,204.082 71.043 C 204.082 70.233,200.936 64.064,199.179 61.429 C 193.810 53.375,187.614 50.367,181.539 52.865 M173.736 96.307 C 170.158 97.307,168.723 101.570,169.898 107.708 C 170.178 109.174,170.408 110.402,170.408 110.437 C 170.408 110.472,169.298 109.993,167.942 109.374 C 161.940 106.634,158.120 106.892,155.876 110.188 C 151.402 116.761,160.852 122.600,178.770 124.333 L 181.179 124.566 181.572 121.722 C 184.153 103.070,181.407 94.163,173.736 96.307 M234.694 96.284 C 230.095 98.209,228.459 110.851,231.158 123.598 L 231.366 124.576 233.625 124.354 C 249.586 122.787,259.036 118.014,257.497 112.296 C 256.088 107.063,251.112 106.044,244.142 109.562 C 243.072 110.102,242.135 110.544,242.061 110.544 C 241.987 110.544,242.133 109.664,242.386 108.588 C 244.325 100.349,240.313 93.931,234.694 96.284 " stroke="none" fill="#db7b64" fill-rule="evenodd"></path><path id="path3" d="M229.697 109.694 C 229.699 110.816,229.763 111.235,229.838 110.623 C 229.914 110.012,229.912 109.093,229.835 108.582 C 229.757 108.071,229.695 108.571,229.697 109.694 M206.722 123.370 C 207.145 123.451,207.757 123.448,208.082 123.363 C 208.407 123.278,208.061 123.211,207.313 123.215 C 206.565 123.219,206.299 123.288,206.722 123.370 M242.432 132.902 C 243.227 132.974,244.528 132.974,245.323 132.902 C 246.118 132.831,245.468 132.772,243.878 132.772 C 242.287 132.772,241.637 132.831,242.432 132.902 M144.983 134.257 C 145.497 134.335,146.339 134.335,146.854 134.257 C 147.368 134.179,146.947 134.116,145.918 134.116 C 144.889 134.116,144.469 134.179,144.983 134.257 M142.007 135.389 C 140.147 135.739,137.030 136.675,137.602 136.712 C 137.845 136.727,137.870 137.633,137.680 139.541 C 136.841 147.983,139.281 153.401,143.923 153.401 C 148.515 153.401,151.214 150.329,153.226 142.810 C 154.390 138.460,153.820 138.920,151.733 144.014 C 151.437 144.735,151.227 144.900,150.952 144.625 C 150.362 144.036,152.049 140.252,154.255 137.216 C 155.229 135.875,146.409 134.559,142.007 135.389 M258.782 137.047 C 258.722 137.204,256.809 138.719,254.531 140.415 C 235.709 154.424,221.917 172.214,218.696 186.637 C 216.931 194.541,217.970 204.147,221.013 208.068 L 221.599 208.822 224.468 207.814 C 227.106 206.888,227.400 206.848,228.124 207.323 C 229.812 208.429,228.942 209.822,225.882 210.916 L 223.703 211.695 225.638 213.496 C 236.609 223.708,263.126 220.442,286.690 205.976 C 288.305 204.984,289.819 204.114,290.055 204.041 C 291.228 203.680,286.955 198.631,282.823 195.496 C 275.917 190.256,271.077 189.317,265.511 192.139 C 262.665 193.583,261.687 193.769,262.574 192.700 C 263.141 192.018,267.607 189.796,268.413 189.796 C 268.762 189.796,269.048 189.566,269.048 189.286 C 269.048 189.005,269.188 188.776,269.360 188.776 C 270.952 188.776,275.055 183.349,276.541 179.279 C 280.510 168.402,278.161 156.262,270.147 146.247 C 267.023 142.342,259.184 135.996,258.782 137.047 M129.406 140.901 L 128.061 142.347 129.507 141.002 C 130.851 139.752,131.109 139.456,130.851 139.456 C 130.796 139.456,130.145 140.106,129.406 140.901 M130.254 141.412 L 129.082 142.687 130.357 141.515 C 131.059 140.870,131.633 140.296,131.633 140.239 C 131.633 139.980,131.345 140.224,130.254 141.412 M157.717 149.651 C 152.713 151.606,148.381 157.390,147.716 163.006 L 147.519 164.675 149.695 163.031 C 154.717 159.238,162.106 157.406,169.396 158.146 C 170.982 158.307,172.343 158.377,172.421 158.301 C 172.499 158.225,172.307 158.163,171.995 158.163 C 171.586 158.163,171.424 157.857,171.414 157.058 C 171.334 151.134,164.030 147.184,157.717 149.651 M115.731 152.965 C 116.246 153.043,117.088 153.043,117.602 152.965 C 118.116 152.887,117.696 152.823,116.667 152.823 C 115.638 152.823,115.217 152.887,115.731 152.965 M254.422 158.392 C 254.422 158.518,253.271 159.681,251.864 160.978 C 247.660 164.851,244.694 169.249,242.751 174.490 C 241.372 178.206,241.356 178.456,242.466 178.843 C 246.182 180.138,248.498 185.370,249.346 194.381 C 249.718 198.341,249.703 198.709,249.141 199.329 C 247.501 201.141,246.422 199.871,246.135 195.792 C 245.718 189.869,244.499 185.263,242.803 183.205 C 241.111 181.153,240.768 181.535,240.394 185.884 C 240.216 187.955,239.627 186.655,239.694 184.339 C 239.759 182.082,239.730 181.984,239.099 182.322 C 237.330 183.269,236.133 187.377,235.595 194.351 C 235.163 199.946,234.908 200.517,233.190 199.734 C 232.322 199.339,232.313 199.294,232.313 195.460 C 232.313 185.856,235.469 178.571,239.630 178.571 C 240.234 178.571,240.482 178.143,241.154 175.935 C 242.947 170.040,247.315 163.238,251.542 159.758 C 253.295 158.315,254.422 157.781,254.422 158.392 M163.265 159.075 C 158.103 159.606,152.616 161.794,149.600 164.526 L 147.724 166.225 148.433 167.211 C 153.790 174.655,168.015 170.086,170.900 159.995 C 171.197 158.955,168.080 158.580,163.265 159.075 M214.031 162.479 C 214.358 162.565,214.894 162.565,215.221 162.479 C 215.548 162.394,215.281 162.324,214.626 162.324 C 213.971 162.324,213.703 162.394,214.031 162.479 M213.861 163.505 C 214.281 163.586,214.970 163.586,215.391 163.505 C 215.812 163.424,215.468 163.358,214.626 163.358 C 213.784 163.358,213.440 163.424,213.861 163.505 M281.037 165.340 L 279.592 165.686 279.592 167.461 C 279.592 176.203,276.231 185.054,271.617 188.464 L 270.274 189.456 271.640 189.456 C 277.010 189.456,287.910 196.702,290.403 201.929 C 290.703 202.559,291.069 203.033,291.215 202.983 C 292.660 202.488,302.831 194.418,308.118 189.571 L 310.284 187.585 309.015 183.767 C 304.683 170.734,292.375 162.627,281.037 165.340 M173.222 167.347 C 173.222 168.189,173.288 168.533,173.369 168.112 C 173.450 167.691,173.450 167.003,173.369 166.582 C 173.288 166.161,173.222 166.505,173.222 167.347 M120.877 170.068 C 120.877 172.219,120.932 173.099,121.000 172.024 C 121.067 170.948,121.067 169.188,121.000 168.112 C 120.932 167.037,120.877 167.917,120.877 170.068 M119.840 170.238 C 119.841 171.548,119.902 172.042,119.976 171.336 C 120.050 170.630,120.049 169.559,119.973 168.955 C 119.898 168.351,119.838 168.929,119.840 170.238 M176.786 179.492 C 177.207 179.573,177.895 179.573,178.316 179.492 C 178.737 179.411,178.393 179.344,177.551 179.344 C 176.709 179.344,176.365 179.411,176.786 179.492 M88.873 182.823 C 88.875 183.759,88.941 184.101,89.020 183.584 C 89.098 183.067,89.096 182.301,89.015 181.883 C 88.934 181.465,88.870 181.888,88.873 182.823 M141.963 185.034 C 141.963 186.998,142.019 187.802,142.087 186.820 C 142.156 185.838,142.156 184.230,142.087 183.248 C 142.019 182.266,141.963 183.070,141.963 185.034 M140.918 184.694 C 140.918 185.723,140.982 186.144,141.060 185.629 C 141.138 185.115,141.138 184.273,141.060 183.759 C 140.982 183.244,140.918 183.665,140.918 184.694 M206.196 183.899 C 200.805 186.556,196.164 199.246,197.134 208.675 L 197.449 211.735 199.830 211.844 C 202.748 211.977,210.027 211.369,213.745 210.680 C 218.000 209.892,217.824 210.001,216.875 208.736 C 214.047 204.967,213.927 204.195,214.312 192.347 C 214.470 187.494,214.276 186.764,212.360 184.991 C 210.435 183.209,208.347 182.839,206.196 183.899 M310.623 191.497 C 310.623 192.151,310.693 192.419,310.779 192.092 C 310.864 191.764,310.864 191.229,310.779 190.901 C 310.693 190.574,310.623 190.842,310.623 191.497 M85.528 193.963 L 84.184 195.408 85.629 194.064 C 86.974 192.813,87.231 192.517,86.974 192.517 C 86.918 192.517,86.268 193.168,85.528 193.963 M86.203 194.643 L 85.204 195.748 86.310 194.749 C 87.340 193.818,87.571 193.537,87.309 193.537 C 87.250 193.537,86.753 194.035,86.203 194.643 M105.897 213.265 C 105.897 214.668,105.957 215.242,106.030 214.541 C 106.103 213.839,106.103 212.691,106.030 211.990 C 105.957 211.288,105.897 211.862,105.897 213.265 M217.347 213.327 C 213.332 214.284,207.705 214.952,202.844 215.048 L 198.374 215.136 198.999 216.791 C 200.818 221.608,206.111 227.526,210.550 229.706 C 222.459 235.557,229.405 225.569,221.170 214.437 L 219.898 212.718 217.347 213.327 M76.309 217.687 C 76.309 219.277,76.368 219.928,76.440 219.133 C 76.511 218.338,76.511 217.037,76.440 216.241 C 76.368 215.446,76.309 216.097,76.309 217.687 M292.993 219.898 C 292.994 222.704,293.046 223.807,293.110 222.348 C 293.174 220.890,293.174 218.594,293.109 217.246 C 293.045 215.899,292.993 217.092,292.993 219.898 M293.998 219.218 C 293.997 220.901,294.055 221.633,294.126 220.844 C 294.197 220.054,294.198 218.677,294.128 217.782 C 294.058 216.888,293.999 217.534,293.998 219.218 M161.654 219.632 C 162.171 219.710,162.937 219.708,163.355 219.627 C 163.773 219.546,163.350 219.482,162.415 219.485 C 161.480 219.488,161.137 219.554,161.654 219.632 M166.079 222.109 C 166.079 222.951,166.145 223.295,166.226 222.874 C 166.308 222.453,166.308 221.764,166.226 221.344 C 166.145 220.923,166.079 221.267,166.079 222.109 M113.518 232.412 C 113.922 233.096,114.270 234.535,114.413 236.113 C 114.865 241.099,116.630 245.797,119.458 249.543 L 120.815 251.341 122.737 250.029 C 125.884 247.883,127.123 245.545,126.755 242.444 C 126.078 236.725,120.374 231.293,115.048 231.293 L 112.858 231.293 113.518 232.412 M110.605 233.100 C 106.007 237.844,111.921 251.701,118.544 251.701 L 119.762 251.701 118.256 249.575 C 115.393 245.535,114.143 242.223,113.582 237.188 C 113.030 232.236,112.349 231.301,110.605 233.100 M145.912 238.448 C 140.616 239.706,135.027 244.357,130.256 251.477 C 128.896 253.505,127.579 255.243,127.328 255.340 C 125.437 256.065,132.019 258.968,139.093 260.530 C 140.483 260.837,141.682 261.272,141.757 261.496 C 142.250 262.975,130.666 259.623,126.792 257.166 C 125.924 256.615,125.160 256.323,125.096 256.516 C 124.382 258.657,117.871 256.975,112.911 253.367 C 109.330 250.763,107.864 250.230,104.791 250.413 C 96.765 250.893,93.322 258.544,95.606 270.821 L 96.031 273.104 98.271 274.277 C 104.095 277.326,110.041 277.483,116.412 274.757 C 118.333 273.935,118.287 274.202,116.908 271.826 C 115.261 268.988,113.945 265.749,113.717 263.976 C 113.426 261.700,114.117 262.552,115.275 265.896 C 120.661 281.452,138.113 286.774,151.240 276.863 C 153.468 275.181,153.396 275.175,154.422 277.124 C 157.937 283.801,166.544 287.463,173.335 285.174 C 176.289 284.177,179.182 282.530,178.883 282.015 C 178.706 281.711,177.787 279.167,176.842 276.361 C 167.239 247.866,157.341 235.733,145.912 238.448 M80.374 241.497 C 80.374 242.526,80.438 242.946,80.516 242.432 C 80.594 241.918,80.594 241.076,80.516 240.561 C 80.438 240.047,80.374 240.468,80.374 241.497 M278.061 241.672 C 274.854 243.394,268.183 254.350,269.524 255.692 C 270.000 256.167,273.848 256.871,276.880 257.037 L 280.461 257.232 280.548 256.085 C 280.628 255.037,281.255 253.090,283.322 247.469 C 284.875 243.248,281.680 239.728,278.061 241.672 M167.444 244.728 C 167.447 245.663,167.513 246.006,167.591 245.489 C 167.669 244.971,167.667 244.206,167.586 243.788 C 167.506 243.369,167.442 243.793,167.444 244.728 M320.748 247.946 L 320.748 249.407 319.473 249.205 C 310.335 247.762,300.089 247.589,295.770 248.806 C 282.764 252.467,281.066 264.693,291.805 277.350 C 292.743 278.456,293.427 279.496,293.325 279.661 C 291.834 282.073,299.318 275.456,301.207 272.692 L 302.551 270.724 305.612 270.616 C 312.876 270.359,317.775 265.915,319.706 257.832 C 320.422 254.833,321.296 247.033,320.954 246.691 C 320.841 246.578,320.748 247.143,320.748 247.946 M256.463 248.810 C 257.097 249.464,257.693 250.000,257.787 250.000 C 257.880 250.000,257.437 249.464,256.803 248.810 C 256.168 248.155,255.572 247.619,255.479 247.619 C 255.385 247.619,255.828 248.155,256.463 248.810 M195.015 257.653 C 195.016 259.150,195.076 259.720,195.147 258.920 C 195.219 258.120,195.218 256.895,195.145 256.198 C 195.072 255.502,195.013 256.156,195.015 257.653 M265.739 256.803 C 265.739 257.645,265.805 257.989,265.886 257.568 C 265.967 257.147,265.967 256.458,265.886 256.037 C 265.805 255.616,265.739 255.961,265.739 256.803 M193.983 257.653 C 193.985 258.776,194.048 259.194,194.124 258.582 C 194.200 257.971,194.198 257.053,194.121 256.542 C 194.043 256.030,193.981 256.531,193.983 257.653 M266.706 257.568 C 266.747 259.423,266.881 259.245,267.089 257.058 C 267.156 256.356,267.088 255.782,266.939 255.782 C 266.789 255.782,266.684 256.586,266.706 257.568 M269.048 260.822 C 269.048 270.041,271.493 275.170,275.889 275.170 C 280.004 275.170,281.828 270.643,280.619 263.435 C 280.430 262.313,280.275 260.668,280.274 259.779 L 280.272 258.163 277.976 258.151 C 275.901 258.141,271.785 257.535,269.813 256.950 C 269.049 256.724,269.048 256.731,269.048 260.822 M216.412 262.075 C 216.416 262.823,216.486 263.089,216.567 262.666 C 216.648 262.243,216.645 261.631,216.560 261.306 C 216.475 260.980,216.409 261.327,216.412 262.075 M190.051 271.334 C 190.659 271.410,191.654 271.410,192.262 271.334 C 192.870 271.259,192.372 271.197,191.156 271.197 C 189.940 271.197,189.443 271.259,190.051 271.334 M277.025 282.738 L 275.680 284.184 277.126 282.839 C 278.470 281.589,278.728 281.293,278.470 281.293 C 278.415 281.293,277.764 281.943,277.025 282.738 M134.955 282.900 C 135.566 282.975,136.485 282.974,136.996 282.896 C 137.507 282.818,137.007 282.757,135.884 282.758 C 134.762 282.760,134.344 282.824,134.955 282.900 M241.582 289.010 C 241.909 289.096,242.445 289.096,242.772 289.010 C 243.099 288.924,242.832 288.854,242.177 288.854 C 241.522 288.854,241.254 288.924,241.582 289.010 M244.983 289.010 C 245.310 289.096,245.846 289.096,246.173 289.010 C 246.501 288.924,246.233 288.854,245.578 288.854 C 244.923 288.854,244.656 288.924,244.983 289.010 " stroke="none" fill="#ebaba3" fill-rule="evenodd"></path><path id="path4" d="M197.274 99.745 C 199.797 102.317,201.902 104.422,201.951 104.422 C 202.195 104.422,201.708 103.916,197.364 99.655 L 192.687 95.068 197.274 99.745 M211.054 100.340 C 208.815 102.585,207.060 104.422,207.153 104.422 C 207.247 104.422,209.156 102.585,211.395 100.340 C 213.634 98.095,215.389 96.259,215.295 96.259 C 215.202 96.259,213.293 98.095,211.054 100.340 M242.936 103.741 C 242.936 104.396,243.006 104.664,243.092 104.337 C 243.177 104.009,243.177 103.474,243.092 103.146 C 243.006 102.819,242.936 103.087,242.936 103.741 M203.912 122.692 C 197.646 123.559,189.996 127.668,184.568 133.084 L 181.891 135.755 179.466 134.562 C 171.534 130.660,162.863 130.983,156.823 135.407 C 155.969 136.032,155.911 136.031,153.741 135.329 C 141.763 131.451,129.558 137.175,123.833 149.355 L 122.502 152.187 117.118 152.219 C 109.738 152.262,106.277 153.158,101.341 156.304 C 91.732 162.426,86.083 177.270,88.781 189.309 L 89.118 190.816 86.548 193.258 C 81.718 197.846,78.047 203.853,76.504 209.694 C 75.712 212.694,75.165 220.748,75.754 220.748 C 75.943 220.748,76.177 219.076,76.290 216.922 C 76.934 204.614,84.921 192.391,93.812 190.106 C 96.803 189.338,101.430 189.206,103.870 189.821 C 105.477 190.226,106.356 190.021,105.441 189.455 C 103.022 187.960,94.804 188.414,90.420 190.285 C 89.081 190.857,88.495 181.248,89.571 176.349 C 92.986 160.792,104.422 151.712,119.063 152.933 C 122.378 153.210,122.241 152.994,121.440 156.676 C 120.500 160.998,120.009 166.526,120.132 171.401 C 120.299 178.052,120.913 176.859,120.949 169.813 C 121.042 151.308,127.688 139.338,139.796 135.870 C 143.494 134.810,153.202 135.269,154.700 136.574 C 154.760 136.625,154.300 137.334,153.679 138.147 C 152.266 139.998,150.559 143.750,150.820 144.430 C 151.128 145.234,151.544 144.735,152.333 142.612 C 155.821 133.237,168.348 129.870,179.254 135.375 C 181.686 136.603,181.635 136.184,179.717 139.149 C 176.839 143.597,174.685 149.652,173.782 155.831 C 173.556 157.376,173.228 158.501,173.005 158.497 C 172.793 158.494,171.251 158.347,169.578 158.171 C 151.875 156.309,141.156 166.483,141.156 185.146 C 141.156 206.905,150.036 221.111,163.164 220.356 L 165.218 220.238 165.410 223.129 C 165.641 226.593,166.575 229.767,168.118 232.327 L 169.253 234.212 168.438 236.069 C 161.140 252.699,178.779 275.036,195.749 270.655 C 196.749 270.397,196.794 270.440,197.870 272.751 C 199.015 275.208,202.642 280.861,203.566 281.628 C 204.482 282.388,204.582 281.676,203.721 280.523 C 198.127 273.033,195.340 265.960,195.045 258.503 C 194.948 256.034,194.749 254.544,194.507 254.463 C 193.834 254.236,194.374 262.671,195.234 265.816 C 196.261 269.568,196.274 269.462,194.728 269.937 C 179.610 274.587,162.441 251.998,169.266 236.437 C 170.289 234.104,170.291 234.127,168.865 231.759 C 166.111 227.186,165.079 219.728,167.200 219.728 C 167.982 219.728,171.088 218.064,171.088 217.645 C 171.088 217.419,170.856 217.376,170.493 217.536 C 155.293 224.232,144.251 213.622,142.153 190.306 C 140.324 169.966,149.027 159.017,167.007 159.039 C 169.532 159.043,171.981 159.146,172.449 159.270 L 173.299 159.495 173.356 164.527 C 173.405 168.861,173.739 172.135,174.687 177.572 C 174.892 178.746,174.857 178.796,173.562 179.184 C 171.538 179.790,168.365 181.988,166.601 184.004 C 164.116 186.845,164.987 187.162,167.581 184.360 C 171.986 179.602,177.179 178.209,182.313 180.408 C 183.529 180.929,184.906 181.428,185.374 181.516 L 186.224 181.678 185.445 180.994 C 184.195 179.897,180.978 178.840,178.325 178.655 C 176.454 178.524,175.829 178.352,175.705 177.932 C 171.982 165.357,174.855 146.489,181.855 137.535 C 195.574 119.988,216.015 118.748,227.761 134.749 L 228.964 136.388 227.275 138.347 C 222.852 143.478,219.088 151.632,217.461 159.609 L 216.854 162.585 214.804 162.587 C 212.535 162.589,210.689 163.006,209.679 163.745 C 208.511 164.599,209.379 164.682,211.610 163.929 C 216.136 162.402,219.390 163.889,222.837 169.061 C 223.632 170.254,223.974 169.671,223.273 168.316 C 222.302 166.439,221.009 165.000,219.303 163.898 C 218.414 163.324,217.690 162.755,217.694 162.635 C 217.781 160.058,220.610 151.089,222.552 147.236 C 227.888 136.646,233.400 132.901,243.707 132.859 C 268.495 132.759,287.257 163.778,274.465 183.712 C 273.413 185.352,269.961 188.776,269.360 188.776 C 269.188 188.776,269.048 189.005,269.048 189.286 C 269.048 189.566,268.762 189.796,268.413 189.796 C 267.607 189.796,263.141 192.018,262.574 192.700 C 261.687 193.769,262.665 193.583,265.511 192.139 C 271.091 189.310,275.886 190.248,282.894 195.540 C 291.441 201.994,293.300 207.323,293.115 224.830 L 293.027 233.163 293.957 235.149 C 295.101 237.590,296.173 238.897,298.428 240.599 C 301.571 242.970,307.592 245.606,308.284 244.913 C 308.501 244.696,308.390 244.501,307.965 244.353 C 295.416 239.981,294.130 237.971,293.841 222.279 C 293.611 209.810,293.365 208.144,291.034 203.223 C 287.979 196.774,277.670 189.456,271.640 189.456 L 270.274 189.456 271.617 188.464 C 276.230 185.054,279.592 176.203,279.592 167.465 L 279.592 165.694 281.548 165.287 C 286.473 164.261,293.453 165.675,297.754 168.570 C 308.540 175.831,314.137 192.428,308.480 200.373 C 307.455 201.812,308.027 202.112,309.179 200.739 C 310.039 199.713,310.602 198.271,311.451 194.921 L 311.747 193.753 313.993 195.854 C 319.205 200.730,324.065 210.449,324.698 217.261 C 324.842 218.808,325.090 219.755,325.381 219.866 C 325.746 220.006,325.795 219.618,325.627 217.929 C 324.772 209.339,319.231 198.563,313.408 194.167 L 311.664 192.850 311.455 190.378 C 310.034 173.571,296.110 161.887,280.602 164.489 L 279.401 164.691 278.959 162.532 C 274.339 139.992,249.941 125.623,231.820 134.771 L 229.772 135.805 228.747 134.492 C 221.829 125.639,212.985 121.437,203.912 122.692 M251.542 159.758 C 246.925 163.559,240.476 174.347,240.476 178.270 C 240.476 179.529,241.544 178.197,242.160 176.170 C 243.842 170.630,247.353 165.134,251.864 160.978 C 253.271 159.681,254.422 158.518,254.422 158.392 C 254.422 157.781,253.295 158.315,251.542 159.758 M239.674 183.248 C 239.360 185.147,239.412 186.667,239.798 186.906 C 240.238 187.178,240.375 186.705,240.612 184.099 C 240.835 181.653,240.055 180.946,239.674 183.248 M118.332 194.608 C 104.884 201.341,102.359 214.827,111.529 230.955 C 113.069 233.663,113.251 234.216,113.586 237.223 C 114.934 249.311,123.003 257.526,137.033 261.094 C 140.591 261.998,141.964 262.115,141.757 261.496 C 141.682 261.272,140.483 260.837,139.093 260.530 C 123.950 257.187,115.552 248.873,114.416 236.099 C 114.227 233.972,113.980 233.181,113.050 231.718 C 102.791 215.593,105.706 200.713,120.333 194.542 C 122.821 193.492,123.656 192.857,122.548 192.857 C 122.153 192.857,120.256 193.645,118.332 194.608 M149.431 196.429 C 149.433 197.738,149.494 198.232,149.568 197.526 C 149.642 196.821,149.640 195.749,149.565 195.145 C 149.490 194.542,149.430 195.119,149.431 196.429 M199.567 215.211 C 200.171 215.287,201.242 215.288,201.948 215.214 C 202.654 215.141,202.160 215.079,200.850 215.078 C 199.541 215.076,198.963 215.136,199.567 215.211 M324.708 225.836 C 324.427 228.855,322.786 235.310,321.542 238.288 C 320.594 240.560,320.567 240.777,320.800 244.218 C 321.889 260.258,316.144 270.244,305.612 270.616 L 302.551 270.724 301.213 272.679 C 297.275 278.429,292.126 281.298,285.763 281.287 C 274.485 281.268,268.450 274.436,266.943 259.980 C 266.466 255.397,266.324 255.619,269.085 256.621 C 273.168 258.103,278.907 258.509,283.248 257.623 C 285.515 257.161,284.206 256.949,279.167 256.960 C 266.363 256.991,256.524 250.665,250.499 238.528 C 248.942 235.394,248.299 234.517,248.299 235.532 C 248.299 239.390,256.860 249.970,263.035 253.744 L 265.986 255.547 265.988 257.621 C 265.998 267.308,270.089 276.561,275.811 279.835 C 276.675 280.329,277.457 280.799,277.551 280.879 C 277.887 281.165,274.282 284.058,272.496 284.936 C 269.139 286.584,264.394 286.411,260.335 284.491 L 258.559 283.651 255.940 285.361 C 239.374 296.175,216.547 282.570,216.584 261.905 C 216.602 252.119,223.236 240.365,231.557 235.374 C 232.851 234.598,233.458 233.673,232.674 233.673 C 232.498 233.673,231.131 234.596,229.635 235.723 C 214.156 247.387,211.156 268.183,223.054 281.352 L 224.207 282.629 221.773 284.205 C 209.179 292.351,194.535 291.538,184.049 282.110 C 182.104 280.361,182.176 280.377,180.814 281.415 C 171.525 288.499,159.371 286.523,154.422 277.124 C 153.396 275.175,153.468 275.181,151.240 276.863 C 138.113 286.774,120.661 281.452,115.275 265.896 C 114.117 262.552,113.426 261.700,113.717 263.976 C 113.945 265.749,115.261 268.988,116.908 271.826 C 118.287 274.202,118.333 273.935,116.412 274.757 C 99.375 282.047,82.175 266.646,80.405 242.517 C 80.274 240.740,79.964 238.971,79.714 238.587 C 78.608 236.883,77.453 232.109,76.693 226.105 C 76.581 225.217,76.345 224.490,76.170 224.490 C 75.162 224.490,77.085 235.162,78.712 238.605 C 79.293 239.834,79.579 241.203,79.742 243.537 C 80.476 254.042,84.615 263.604,91.302 270.246 C 99.035 277.926,107.988 279.511,118.375 275.039 C 118.714 274.894,119.645 275.453,121.065 276.655 C 123.658 278.850,126.091 280.363,128.987 281.583 C 134.908 284.078,148.545 281.593,152.040 277.382 C 152.734 276.546,153.168 276.803,154.422 278.795 C 159.951 287.579,171.955 289.239,180.856 282.450 L 181.956 281.611 184.520 283.649 C 195.936 292.721,210.093 293.022,222.978 284.467 L 224.777 283.272 227.312 284.811 C 237.814 291.186,249.536 291.453,257.348 285.494 L 258.513 284.605 260.464 285.478 C 266.344 288.108,272.244 287.178,276.755 282.912 L 278.566 281.199 280.695 281.667 C 289.197 283.537,297.214 280.343,301.986 273.185 C 303.079 271.547,303.291 271.389,304.170 271.565 C 307.195 272.170,312.465 270.448,315.164 267.973 C 319.804 263.717,321.515 258.170,321.601 247.109 C 321.653 240.414,321.670 240.263,322.687 237.585 C 324.561 232.654,326.198 224.016,325.323 223.680 C 325.051 223.576,324.853 224.269,324.708 225.836 " stroke="none" fill="#db938b" fill-rule="evenodd"></path><path id="path5" d="M173.562 63.265 C 173.562 64.107,173.628 64.452,173.709 64.031 C 173.791 63.610,173.791 62.921,173.709 62.500 C 173.628 62.079,173.562 62.423,173.562 63.265 M235.127 63.265 C 235.127 64.107,235.193 64.452,235.274 64.031 C 235.355 63.610,235.355 62.921,235.274 62.500 C 235.193 62.079,235.127 62.423,235.127 63.265 M202.721 123.974 C 189.579 126.597,178.654 138.015,175.483 152.441 C 173.489 161.515,174.396 178.667,176.850 178.307 C 179.255 177.954,186.054 180.272,186.054 181.445 C 186.054 182.174,185.769 182.122,183.233 180.935 C 177.527 178.265,170.896 180.014,166.960 185.227 L 165.593 187.037 166.130 190.413 C 167.159 196.883,166.827 200.000,165.110 200.000 C 163.929 200.000,163.705 199.394,163.290 195.068 C 161.519 176.623,152.721 177.904,152.721 196.607 C 152.721 199.359,152.421 200.000,151.130 200.000 C 147.525 200.000,149.673 183.818,153.769 180.117 C 157.153 177.060,161.520 178.391,163.962 183.223 L 165.169 185.610 166.169 184.280 C 167.542 182.456,170.339 180.364,172.695 179.400 C 173.797 178.949,174.627 178.404,174.585 178.159 C 174.545 177.918,174.259 176.344,173.951 174.660 C 173.643 172.974,173.314 168.886,173.218 165.561 L 173.045 159.524 172.140 159.524 C 171.378 159.524,171.145 159.766,170.665 161.061 C 167.050 170.816,152.893 174.706,148.275 167.212 L 147.668 166.227 146.294 168.353 C 140.598 177.167,140.866 196.342,146.856 208.503 C 151.467 217.866,161.023 221.889,169.087 217.864 C 170.039 217.389,170.834 217.190,171.106 217.358 C 171.862 217.825,170.920 218.585,168.514 219.447 L 166.327 220.232 166.332 222.106 C 166.344 225.864,167.735 230.225,169.821 233.047 L 170.514 233.984 169.594 236.034 C 162.482 251.882,179.208 274.091,194.961 269.716 L 196.215 269.368 195.544 267.422 C 194.015 262.984,193.329 255.301,194.384 254.425 C 195.084 253.844,195.152 254.163,195.356 259.014 C 195.639 265.740,198.122 272.438,202.687 278.790 C 204.558 281.392,205.095 283.237,203.627 282.019 C 202.743 281.286,199.090 275.658,197.790 273.028 L 196.537 270.493 194.983 270.961 C 186.416 273.539,174.463 266.420,169.214 255.612 C 165.910 248.808,165.590 242.773,168.189 236.276 C 169.025 234.187,169.063 233.914,168.589 233.391 C 166.889 231.512,164.659 224.017,165.035 221.449 L 165.163 220.578 162.259 220.566 C 149.358 220.514,141.103 206.887,141.043 185.544 C 141.018 176.643,142.357 171.542,145.972 166.766 C 147.301 165.010,147.619 164.328,147.619 163.237 C 147.619 158.514,152.051 152.199,157.059 149.787 C 163.334 146.764,171.390 150.664,171.421 156.740 C 171.428 158.130,171.477 158.203,172.337 158.101 C 173.211 157.997,173.267 157.861,173.849 154.422 C 174.833 148.601,177.024 142.774,179.713 138.826 C 181.326 136.458,181.352 136.535,178.486 135.212 C 167.484 130.134,155.789 133.447,153.547 142.276 C 151.624 149.848,148.430 153.741,144.140 153.741 C 139.498 153.741,137.633 150.417,137.604 142.092 C 137.594 139.145,137.530 136.735,137.463 136.735 C 136.811 136.735,132.930 139.245,131.297 140.723 C 124.369 146.993,120.967 157.136,121.108 171.102 C 121.157 175.948,121.050 176.628,120.352 175.930 C 119.297 174.876,119.724 164.463,121.118 157.242 C 121.959 152.884,122.352 153.228,116.553 153.247 C 99.132 153.306,86.970 168.398,89.435 186.900 C 89.929 190.604,89.653 190.346,92.240 189.521 C 95.400 188.513,96.016 188.413,99.179 188.401 C 102.435 188.389,105.663 188.995,105.920 189.665 C 106.185 190.355,105.543 190.561,104.330 190.175 C 98.363 188.276,91.224 190.039,86.719 194.524 C 80.325 200.889,77.046 207.961,76.627 216.290 L 76.431 220.165 77.486 219.542 C 79.570 218.311,90.787 210.334,97.929 205.003 C 105.912 199.044,106.825 198.669,107.077 201.245 C 107.212 202.625,99.688 208.477,82.861 220.080 L 76.794 224.264 77.023 226.673 C 77.417 230.827,78.553 235.802,79.603 237.967 C 80.297 239.400,80.613 240.567,80.614 241.708 C 80.628 252.738,87.078 266.567,94.745 272.003 L 95.782 272.738 95.353 270.298 C 92.433 253.664,101.084 245.287,112.965 253.243 C 118.308 256.821,121.581 257.844,124.336 256.797 L 125.246 256.450 124.273 255.721 C 123.737 255.320,122.509 254.231,121.543 253.302 C 120.131 251.943,119.627 251.652,118.971 251.817 C 112.431 253.458,105.358 236.685,110.871 232.609 L 111.774 231.941 109.806 227.961 C 102.963 214.117,105.072 202.769,115.792 195.759 C 118.590 193.930,122.418 192.350,122.896 192.828 C 123.365 193.297,123.040 193.577,121.088 194.389 C 107.293 200.127,103.436 212.406,110.792 227.167 L 112.755 231.105 115.136 231.123 C 122.949 231.181,129.975 242.128,125.648 247.502 C 124.636 248.760,122.285 250.753,121.363 251.135 C 120.877 251.336,121.649 252.101,124.756 254.496 L 126.552 255.880 127.382 255.101 C 127.838 254.673,129.355 252.612,130.752 250.523 C 141.507 234.441,154.946 233.971,165.055 249.323 C 169.061 255.407,175.260 269.892,178.409 280.527 C 179.020 282.591,179.003 282.583,180.472 281.463 C 181.978 280.314,182.027 280.327,184.897 282.635 C 194.255 290.164,205.093 291.687,216.066 287.018 C 217.947 286.217,223.234 283.326,223.768 282.805 C 223.838 282.737,223.267 281.930,222.499 281.012 C 213.836 270.666,213.203 256.298,220.899 244.745 C 223.726 240.503,231.014 233.673,232.714 233.673 C 233.801 233.673,233.389 234.254,231.187 235.825 C 216.187 246.529,212.401 264.820,222.297 278.773 C 229.554 289.003,246.685 291.876,256.923 284.579 L 258.574 283.402 260.719 284.406 C 266.095 286.922,271.488 286.272,275.650 282.608 C 277.563 280.925,277.563 280.968,275.653 279.955 C 270.099 277.008,265.646 266.762,265.646 256.929 C 265.646 255.569,265.569 255.463,263.861 254.496 C 257.247 250.753,249.161 241.135,248.243 235.920 C 247.923 234.106,249.110 235.305,250.629 238.334 C 254.399 245.845,259.953 251.480,266.527 254.460 C 269.278 255.708,269.238 255.713,269.675 253.997 C 271.242 247.835,276.579 241.156,279.937 241.156 C 283.655 241.156,284.861 244.103,283.032 248.716 C 281.880 251.620,280.612 255.632,280.612 256.375 C 280.612 256.806,280.933 256.859,282.463 256.679 C 284.325 256.460,285.053 256.762,284.256 257.423 C 284.020 257.619,283.027 257.885,282.049 258.015 C 279.954 258.293,280.006 258.060,280.819 263.510 C 281.915 270.851,280.347 274.860,276.161 275.421 C 271.795 276.007,269.015 270.604,268.865 261.244 C 268.790 256.502,268.712 256.264,267.211 256.146 C 266.375 256.081,267.495 264.365,268.916 268.751 C 272.207 278.913,282.497 283.935,292.128 280.082 L 293.551 279.513 292.259 278.107 C 282.446 267.432,282.099 255.377,291.459 250.388 C 297.032 247.417,310.587 246.843,319.907 249.182 L 320.800 249.406 320.691 244.686 L 320.582 239.966 321.847 236.659 C 323.064 233.478,324.248 228.476,324.586 225.081 L 324.747 223.461 319.942 220.177 C 314.554 216.496,305.138 209.691,299.490 205.396 C 295.496 202.359,294.716 201.132,296.124 200.102 C 297.132 199.365,297.321 199.474,304.954 205.158 C 311.671 210.159,324.583 219.377,324.714 219.264 C 325.430 218.646,322.716 209.343,320.575 205.079 C 317.869 199.689,311.565 192.541,311.565 194.862 C 311.565 197.457,308.730 202.708,307.812 201.814 C 307.497 201.508,307.598 201.161,308.259 200.284 C 310.009 197.962,311.019 192.586,310.314 189.354 L 310.032 188.061 306.972 190.833 C 303.228 194.224,297.799 198.614,294.074 201.264 L 291.290 203.245 292.045 205.124 C 293.742 209.345,294.015 211.706,294.047 222.449 C 294.078 233.059,294.182 233.900,295.769 236.423 C 297.426 239.057,302.196 242.224,306.718 243.693 C 307.855 244.062,308.503 244.464,308.503 244.800 C 308.503 246.497,299.900 242.488,296.764 239.329 C 293.066 235.605,293.080 235.662,292.819 222.619 C 292.590 211.113,292.403 209.428,290.930 205.527 C 290.261 203.755,290.717 203.687,286.615 206.179 C 262.389 220.900,236.894 223.859,225.117 213.317 L 223.465 211.838 221.792 212.239 L 220.119 212.641 221.829 215.160 C 229.680 226.731,221.135 236.318,209.312 229.204 C 204.982 226.599,200.678 221.531,198.898 216.941 L 198.133 214.966 196.090 214.960 C 187.518 214.934,173.308 211.036,173.534 208.774 C 173.721 206.905,174.321 206.869,179.309 208.428 C 184.641 210.095,189.397 211.088,193.878 211.470 L 197.109 211.746 197.109 205.958 C 197.109 190.637,205.639 178.791,212.399 184.725 C 214.447 186.523,214.774 188.014,214.432 193.977 C 213.915 202.993,214.102 204.166,216.694 208.206 L 217.708 209.786 219.143 209.438 C 221.104 208.962,221.226 208.777,220.448 207.448 C 216.026 199.895,216.823 187.595,222.489 175.964 C 228.432 163.765,243.871 146.954,256.885 138.512 C 259.311 136.938,259.328 137.042,256.449 135.755 C 247.887 131.927,238.041 132.125,231.230 136.263 C 225.921 139.488,219.608 151.592,218.211 161.224 C 217.990 162.745,218.000 162.763,219.612 163.946 C 221.560 165.375,223.805 168.242,223.808 169.303 C 223.811 170.528,223.234 170.199,222.000 168.270 C 219.219 163.923,214.587 162.365,210.587 164.433 C 209.727 164.879,209.351 164.927,209.060 164.632 C 208.154 163.712,212.607 162.044,215.190 162.335 C 216.501 162.483,216.691 162.418,216.814 161.778 C 218.628 152.355,221.860 144.805,226.606 138.906 C 228.979 135.957,228.972 136.456,226.675 133.612 C 220.439 125.895,211.375 122.248,202.721 123.974 " stroke="none" fill="#fbcbbb" fill-rule="evenodd"></path><path id="path6" d="M242.772 131.879 C 243.380 131.954,244.375 131.954,244.983 131.879 C 245.591 131.803,245.094 131.742,243.878 131.742 C 242.662 131.742,242.164 131.803,242.772 131.879 M137.501 139.626 C 137.505 140.374,137.574 140.640,137.656 140.217 C 137.737 139.794,137.734 139.182,137.649 138.857 C 137.564 138.531,137.497 138.878,137.501 139.626 M137.494 144.898 C 137.494 145.553,137.564 145.821,137.649 145.493 C 137.735 145.166,137.735 144.630,137.649 144.303 C 137.564 143.975,137.494 144.243,137.494 144.898 M245.727 147.364 L 244.728 148.469 245.833 147.470 C 246.441 146.921,246.939 146.423,246.939 146.365 C 246.939 146.102,246.658 146.334,245.727 147.364 M160.969 148.883 C 161.484 148.961,162.326 148.961,162.840 148.883 C 163.355 148.805,162.934 148.741,161.905 148.741 C 160.876 148.741,160.455 148.805,160.969 148.883 M239.281 153.486 L 234.864 157.993 239.371 153.576 C 243.557 149.473,244.032 148.980,243.788 148.980 C 243.738 148.980,241.710 151.008,239.281 153.486 M143.287 153.645 C 143.804 153.724,144.569 153.722,144.988 153.641 C 145.406 153.560,144.983 153.496,144.048 153.499 C 143.112 153.501,142.770 153.567,143.287 153.645 M97.768 160.289 L 96.769 161.395 97.874 160.396 C 98.905 159.464,99.136 159.184,98.873 159.184 C 98.815 159.184,98.317 159.681,97.768 160.289 M166.815 166.752 L 165.816 167.857 166.922 166.858 C 167.530 166.309,168.027 165.811,168.027 165.753 C 168.027 165.490,167.747 165.721,166.815 166.752 M155.697 170.994 C 156.305 171.070,157.300 171.070,157.908 170.994 C 158.516 170.919,158.019 170.857,156.803 170.857 C 155.587 170.857,155.089 170.919,155.697 170.994 M211.565 184.120 C 211.565 184.179,212.062 184.676,212.670 185.225 L 213.776 186.224 212.776 185.119 C 211.845 184.089,211.565 183.857,211.565 184.120 M140.895 187.415 C 140.895 188.070,140.965 188.338,141.051 188.010 C 141.136 187.683,141.136 187.147,141.051 186.820 C 140.965 186.492,140.895 186.760,140.895 187.415 M306.104 191.412 L 304.932 192.687 306.207 191.515 C 307.395 190.424,307.639 190.136,307.380 190.136 C 307.323 190.136,306.749 190.710,306.104 191.412 M214.031 198.129 C 214.035 198.878,214.105 199.144,214.186 198.721 C 214.268 198.297,214.264 197.685,214.179 197.360 C 214.094 197.035,214.028 197.381,214.031 198.129 M106.905 213.265 C 106.905 214.294,106.968 214.715,107.046 214.201 C 107.124 213.686,107.124 212.844,107.046 212.330 C 106.968 211.815,106.905 212.236,106.905 213.265 M223.163 211.650 C 223.244 211.696,223.996 212.347,224.835 213.095 L 226.361 214.456 225.016 213.010 C 224.277 212.215,223.524 211.565,223.344 211.565 C 223.163 211.565,223.082 211.603,223.163 211.650 M75.275 217.857 C 75.277 218.980,75.341 219.398,75.417 218.786 C 75.492 218.175,75.491 217.257,75.413 216.746 C 75.335 216.235,75.274 216.735,75.275 217.857 M240.735 219.628 C 241.158 219.710,241.771 219.707,242.096 219.621 C 242.421 219.536,242.075 219.470,241.327 219.474 C 240.578 219.477,240.312 219.547,240.735 219.628 M246.854 219.628 C 247.275 219.709,247.963 219.709,248.384 219.628 C 248.805 219.547,248.461 219.480,247.619 219.480 C 246.777 219.480,246.433 219.547,246.854 219.628 M165.059 222.109 C 165.059 222.951,165.125 223.295,165.206 222.874 C 165.287 222.453,165.287 221.764,165.206 221.344 C 165.125 220.923,165.059 221.267,165.059 222.109 M293.970 223.469 C 293.970 224.311,294.037 224.656,294.118 224.235 C 294.199 223.814,294.199 223.125,294.118 222.704 C 294.037 222.283,293.970 222.628,293.970 223.469 M204.422 225.340 C 205.438 226.369,206.346 227.211,206.439 227.211 C 206.533 227.211,205.778 226.369,204.762 225.340 C 203.746 224.311,202.838 223.469,202.744 223.469 C 202.651 223.469,203.406 224.311,204.422 225.340 M114.541 231.192 C 114.962 231.273,115.651 231.273,116.071 231.192 C 116.492 231.111,116.148 231.045,115.306 231.045 C 114.464 231.045,114.120 231.111,114.541 231.192 M122.775 234.779 C 124.184 236.281,124.490 236.551,124.490 236.295 C 124.490 236.241,123.763 235.514,122.874 234.680 L 121.259 233.163 122.775 234.779 M160.204 243.707 C 161.409 244.923,162.472 245.918,162.565 245.918 C 162.659 245.918,161.749 244.923,160.544 243.707 C 159.339 242.491,158.276 241.497,158.183 241.497 C 158.089 241.497,158.999 242.491,160.204 243.707 M135.195 244.983 L 132.823 247.449 135.289 245.077 C 137.580 242.874,137.910 242.517,137.661 242.517 C 137.609 242.517,136.499 243.627,135.195 244.983 M166.428 244.898 C 166.428 245.927,166.492 246.348,166.570 245.833 C 166.648 245.319,166.648 244.477,166.570 243.963 C 166.492 243.448,166.428 243.869,166.428 244.898 M303.330 247.871 C 304.506 247.938,306.343 247.937,307.411 247.870 C 308.480 247.803,307.517 247.748,305.272 247.749 C 303.027 247.750,302.153 247.805,303.330 247.871 M113.605 249.490 C 114.240 250.145,114.836 250.680,114.929 250.680 C 115.023 250.680,114.580 250.145,113.946 249.490 C 113.311 248.835,112.715 248.299,112.622 248.299 C 112.528 248.299,112.971 248.835,113.605 249.490 M104.511 250.244 C 105.029 250.322,105.794 250.320,106.212 250.239 C 106.631 250.159,106.207 250.095,105.272 250.097 C 104.337 250.100,103.994 250.166,104.511 250.244 M98.108 253.146 L 97.109 254.252 98.214 253.253 C 99.245 252.321,99.476 252.041,99.213 252.041 C 99.155 252.041,98.657 252.538,98.108 253.146 M268.828 261.054 C 268.827 262.738,268.885 263.470,268.956 262.680 C 269.027 261.891,269.028 260.513,268.958 259.619 C 268.888 258.725,268.829 259.371,268.828 261.054 M215.392 262.075 C 215.396 262.823,215.465 263.089,215.547 262.666 C 215.628 262.243,215.625 261.631,215.540 261.306 C 215.455 260.980,215.388 261.327,215.392 262.075 M174.150 263.032 C 174.150 263.090,174.647 263.588,175.255 264.137 L 176.361 265.136 175.362 264.031 C 174.430 263.000,174.150 262.769,174.150 263.032 M281.038 266.837 C 281.042 267.585,281.112 267.851,281.193 267.428 C 281.274 267.005,281.271 266.393,281.186 266.067 C 281.101 265.742,281.034 266.088,281.038 266.837 M190.226 270.312 C 190.743 270.390,191.508 270.388,191.926 270.307 C 192.345 270.227,191.922 270.163,190.986 270.165 C 190.051 270.168,189.709 270.234,190.226 270.312 M275.089 275.411 C 275.512 275.492,276.124 275.489,276.450 275.404 C 276.775 275.319,276.429 275.252,275.680 275.256 C 274.932 275.260,274.666 275.329,275.089 275.411 M106.892 277.795 C 107.409 277.873,108.175 277.871,108.593 277.790 C 109.011 277.710,108.588 277.646,107.653 277.648 C 106.718 277.651,106.375 277.717,106.892 277.795 M155.782 281.059 C 155.782 281.117,156.280 281.615,156.888 282.164 L 157.993 283.163 156.994 282.058 C 156.063 281.027,155.782 280.796,155.782 281.059 M167.772 286.969 C 168.099 287.055,168.635 287.055,168.963 286.969 C 169.290 286.884,169.022 286.814,168.367 286.814 C 167.713 286.814,167.445 286.884,167.772 286.969 " stroke="none" fill="#eeb6a8" fill-rule="evenodd"></path><path id="path7" d="M205.911 325.850 C 205.911 328.002,205.966 328.882,206.034 327.806 C 206.101 326.730,206.101 324.970,206.034 323.895 C 205.966 322.819,205.911 323.699,205.911 325.850 M208.972 325.850 C 208.972 328.002,209.027 328.882,209.095 327.806 C 209.162 326.730,209.162 324.970,209.095 323.895 C 209.027 322.819,208.972 323.699,208.972 325.850 " stroke="none" fill="#88909b" fill-rule="evenodd"></path><path id="path8" d="M203.185 325.680 C 203.186 327.551,203.243 328.273,203.312 327.285 C 203.381 326.296,203.381 324.765,203.311 323.883 C 203.241 323.001,203.185 323.810,203.185 325.680 M205.868 330.782 C 205.872 331.531,205.942 331.797,206.023 331.374 C 206.104 330.950,206.101 330.338,206.016 330.013 C 205.931 329.688,205.864 330.034,205.868 330.782 M199.739 331.973 C 199.739 332.628,199.809 332.895,199.894 332.568 C 199.980 332.241,199.980 331.705,199.894 331.378 C 199.809 331.050,199.739 331.318,199.739 331.973 M209.269 334.524 C 209.273 335.272,209.343 335.538,209.424 335.115 C 209.506 334.692,209.503 334.080,209.417 333.755 C 209.332 333.429,209.266 333.776,209.269 334.524 " stroke="none" fill="#aebdb6" fill-rule="evenodd"></path></g></svg>